<svg width="345" height="262" viewBox="0 0 345 262" fill="none" xmlns="http://www.w3.org/2000/svg">
<mask id="mask0_3041_5618" style="mask-type:alpha" maskUnits="userSpaceOnUse" x="0" y="0" width="345" height="262">
<rect width="345" height="262" rx="10" fill="#2B1C4D"/>
</mask>
<g mask="url(#mask0_3041_5618)">
<mask id="mask1_3041_5618" style="mask-type:luminance" maskUnits="userSpaceOnUse" x="-556" y="-66" width="1020" height="990">
<path d="M-545.378 923.157L454 923.157C459.523 923.157 464 918.68 464 913.157L464 -55.7875C464 -61.3104 459.523 -65.7875 454 -65.7875L-545.378 -65.7875C-550.901 -65.7875 -555.378 -61.3103 -555.378 -55.7875L-555.378 913.157C-555.378 918.68 -550.901 923.157 -545.378 923.157Z" fill="white"/>
</mask>
<g mask="url(#mask1_3041_5618)">
<g filter="url(#filter0_f_3041_5618)">
<path d="M-335 568.664L105.891 568.664C111.413 568.664 115.891 564.187 115.891 558.664L115.891 158.129C115.891 152.606 111.414 148.129 105.891 148.129L-334.999 148.129C-340.522 148.129 -344.999 152.606 -344.999 158.129L-345 558.664C-345 564.187 -340.523 568.664 -335 568.664Z" fill="#2B1C4D"/>
<path d="M-69.6523 503.374L408.378 503.374C413.901 503.374 418.378 498.897 418.378 493.374L418.378 49.0966C418.378 43.5738 413.901 39.0966 408.378 39.0966L-69.6518 39.0967C-75.1746 39.0967 -79.6518 43.5738 -79.6518 49.0967L-79.6522 493.374C-79.6522 498.897 -75.1751 503.374 -69.6523 503.374Z" fill="#A180FF"/>
<path d="M479.372 644.734L479.373 66.1895C479.373 60.6666 474.896 56.1895 469.373 56.1895L151.98 56.1895C146.457 56.1895 141.98 60.6666 141.98 66.1895L141.979 644.734C141.979 650.257 146.456 654.734 151.979 654.734L469.372 654.734C474.895 654.734 479.372 650.257 479.372 644.734Z" fill="#DF39EA"/>
<path d="M-176.947 271.344L266.181 271.344C271.704 271.344 276.181 266.867 276.181 261.344L276.181 -244C276.181 -249.523 271.704 -254 266.181 -254L-176.947 -254C-182.47 -254 -186.947 -249.523 -186.947 -244L-186.947 261.344C-186.947 266.867 -182.47 271.344 -176.947 271.344Z" fill="#A180FF"/>
</g>
</g>
</g>
<defs>
<filter id="filter0_f_3041_5618" x="-720" y="-629" width="1574.37" height="1658.73" filterUnits="userSpaceOnUse" color-interpolation-filters="sRGB">
<feFlood flood-opacity="0" result="BackgroundImageFix"/>
<feBlend mode="normal" in="SourceGraphic" in2="BackgroundImageFix" result="shape"/>
<feGaussianBlur stdDeviation="187.5" result="effect1_foregroundBlur_3041_5618"/>
</filter>
</defs>
</svg>
