<?xml version="1.0" encoding="utf-8"?>
<!-- Generator: Adobe Illustrator 24.0.1, SVG Export Plug-In . SVG Version: 6.00 Build 0)  -->
<svg version="1.1" id="Слой_1" xmlns="http://www.w3.org/2000/svg" xmlns:xlink="http://www.w3.org/1999/xlink" x="0px" y="0px"
	 viewBox="0 0 1280 2165" style="enable-background:new 0 0 1280 2165;" xml:space="preserve">
<style type="text/css">
	.st0{clip-path:url(#SVGID_2_);fill:#1D0433;}
	.st1{opacity:0.14;clip-path:url(#SVGID_2_);}
	.st2{fill:#ED1E79;}
	.st3{fill:#4A70B5;}
	.st4{opacity:0.06;clip-path:url(#SVGID_2_);}
	.st5{clip-path:url(#SVGID_2_);fill:none;}
	.st6{fill:#FCFCFA;}
</style>
<g>
	<defs>
		<rect id="SVGID_1_" x="0" y="-0.2" width="1280" height="2164.62"/>
	</defs>
	<clipPath id="SVGID_2_">
		<use xlink:href="#SVGID_1_"  style="overflow:visible;"/>
	</clipPath>
	<rect x="-1.24" y="-40.58" class="st0" width="1296.24" height="2205"/>
	<g class="st1">
		<g>
			<path class="st2" d="M181.32,496.11c3.74,33.22,6.46,66.56,9.85,99.82c288.97,79.3,479.6,363.81,434.03,667.51
				c-47.47,316.38-333.61,537.67-648.08,508.7c5.55,32.28,12.94,64.2,19.7,96.27c352.73,18.11,668.42-234.25,721.94-590.93
				C773.32,913.8,535.27,573.85,181.32,496.11z"/>
			<path class="st2" d="M-561.98,1085.32c45.65-304.29,312.3-520.58,612.62-510.71c-7.73-31.56-15.12-63.21-21.55-95.08
				c-337.52,0.81-633.03,247.83-684.62,591.75c-48.9,325.92,137.12,632.68,430.96,748.96c1.79-33.8,3.51-67.59,3.31-101.45
				C-456.74,1609.54-602.44,1355.04-561.98,1085.32z"/>
			<path class="st2" d="M428.79,1627.14c209.49-147.4,295.95-661.53-146.55-925.17l131.64-165.48
				C413.88,536.49,1131.55,1124.69,428.79,1627.14z"/>
			<path class="st2" d="M239.95,841.42l-76.86-367.47l354.18,20.63C371.06,566.21,280.66,682.04,239.95,841.42z"/>
			<path class="st2" d="M-337.98,703.02c-214.33,140.26-318.04,651.18,115.32,929.56l-137.14,160.97
				C-359.8,1793.55-1057.25,1181.53-337.98,703.02z"/>
			<path class="st2" d="M-206.99,1543.21l70.31,328.47l-317-16.97C-338.57,1786.63-242.67,1687.73-206.99,1543.21z"/>
			<polygon class="st3" points="-474.14,414.58 25.34,1208.49 420.51,1005.75 -4.91,1332.35 			"/>
		</g>
	</g>
	<g class="st4">
		<g>
			<path class="st2" d="M1094.71,989.34c-39.94,17.93-80.44,34.65-120.57,52.16c16.54,392.11-262.17,743.54-659.18,808.04
				c-413.58,67.19-803.91-201.31-893.41-605.12c-38.05,19.82-74.91,41.79-112.2,63.03c118.32,447.2,559.22,740.14,1025.48,664.39
				C810.22,1894.61,1139.14,1461.88,1094.71,989.34z"/>
			<path class="st2" d="M62.83,297.63c397.78-64.62,774.08,181.56,881.75,560.08c36.28-22.25,72.8-44.11,109.98-64.86
				C918.71,372.19,492.54,102.29,42.96,175.33c-426.05,69.22-734.36,423.79-762,836.74c42.87-11.27,85.71-22.62,127.86-36.4
				C-548.98,638.32-289.75,354.91,62.83,297.63z"/>
			<path class="st2" d="M-217.15,1749.86c267.55,202.41,943.35,104.85,1095.41-552.4l259,98.08
				C1137.25,1295.54,690.3,2425.68-217.15,1749.86z"/>
			<path class="st2" d="M687.43,1200.42l427.63-242.67l115.77,450.01C1083.07,1254.02,902.48,1187.53,687.43,1200.42z"/>
			<path class="st2" d="M629.16,424.29C368.59,212.99-310.11,287.75-484.2,939.49l-255.56-106.74
				C-739.76,832.74-255.03-281.68,629.16,424.29z"/>
			<path class="st2" d="M-366.48,923.33l-381.61,218.92l-105.48-402.17C-722.66,856.46-560.98,936.57-366.48,923.33z"/>
		</g>
	</g>
	<rect x="-1.24" y="-40.58" class="st5" width="1280" height="2205"/>
</g>
</svg>
