<?xml version="1.0" encoding="utf-8"?>
<!-- Generator: Adobe Illustrator 24.0.1, SVG Export Plug-In . SVG Version: 6.00 Build 0)  -->
<svg version="1.1" id="Слой_1" xmlns="http://www.w3.org/2000/svg" xmlns:xlink="http://www.w3.org/1999/xlink" x="0px" y="0px"
	 viewBox="0 0 283.46 283.46" style="enable-background:new 0 0 283.46 283.46;" xml:space="preserve">
<style type="text/css">
	.st0{fill:#1D0433;}
	.st1{fill:#4A70B5;}
	.st2{fill:#FCFCFA;}
	.st3{fill:#ED1E79;}
</style>
<g>
	<g>
		<path class="st1" d="M64.91,148.27h-2.43v-1.15h6.21v1.15h-2.43v6.17h-1.36V148.27z"/>
		<path class="st1" d="M75.99,147.12h1.36v7.32h-1.36V147.12z"/>
		<path class="st1" d="M92.32,154.44l-0.01-4.85l-2.4,4.01H89.3l-2.4-3.95v4.79h-1.3v-7.32h1.12l2.91,4.85l2.85-4.85h1.12l0.01,7.32
			H92.32z"/>
		<path class="st1" d="M107.35,153.3v1.14h-5.49v-7.32h5.34v1.14h-3.98v1.9h3.53v1.12h-3.53v2.02H107.35z"/>
		<path class="st1" d="M124.29,147.12h1.36v7.32h-1.36V147.12z"/>
		<path class="st1" d="M134.53,154.3c-0.53-0.16-0.94-0.37-1.25-0.64l0.47-1.06c0.3,0.24,0.67,0.43,1.1,0.58s0.87,0.23,1.31,0.23
			c0.54,0,0.95-0.09,1.22-0.26c0.27-0.17,0.4-0.4,0.4-0.69c0-0.21-0.08-0.38-0.22-0.52c-0.15-0.14-0.34-0.24-0.57-0.32
			s-0.54-0.16-0.94-0.26c-0.56-0.13-1.01-0.26-1.35-0.4c-0.35-0.13-0.64-0.34-0.89-0.62c-0.25-0.28-0.37-0.66-0.37-1.14
			c0-0.4,0.11-0.77,0.33-1.1s0.55-0.59,0.99-0.79c0.44-0.19,0.98-0.29,1.63-0.29c0.45,0,0.88,0.06,1.32,0.17
			c0.43,0.11,0.8,0.27,1.12,0.48l-0.43,1.06c-0.32-0.19-0.66-0.33-1-0.43s-0.69-0.15-1.01-0.15c-0.54,0-0.94,0.09-1.2,0.27
			c-0.26,0.18-0.39,0.42-0.39,0.72c0,0.21,0.07,0.38,0.22,0.51c0.15,0.13,0.34,0.24,0.57,0.31s0.54,0.16,0.94,0.26
			c0.54,0.13,0.99,0.26,1.34,0.39s0.65,0.34,0.89,0.62c0.25,0.28,0.37,0.66,0.37,1.13c0,0.4-0.11,0.77-0.33,1.1
			c-0.22,0.33-0.55,0.59-1,0.78c-0.45,0.19-0.99,0.29-1.63,0.29C135.61,154.54,135.06,154.46,134.53,154.3z"/>
		<path class="st1" d="M162.63,154.44l-0.01-4.85l-2.4,4.01h-0.61l-2.4-3.95v4.79h-1.3v-7.32h1.12l2.91,4.85l2.85-4.85h1.12
			l0.01,7.32H162.63z"/>
		<path class="st1" d="M173.57,154.06c-0.6-0.32-1.07-0.77-1.41-1.35c-0.34-0.57-0.51-1.22-0.51-1.93s0.17-1.35,0.51-1.93
			c0.34-0.57,0.81-1.02,1.41-1.35c0.6-0.32,1.27-0.49,2.02-0.49c0.75,0,1.42,0.16,2.02,0.49s1.07,0.77,1.41,1.34
			c0.34,0.57,0.51,1.22,0.51,1.93s-0.17,1.36-0.51,1.93c-0.34,0.57-0.81,1.02-1.41,1.34c-0.6,0.32-1.27,0.49-2.02,0.49
			C174.84,154.54,174.17,154.38,173.57,154.06z M176.9,153.02c0.39-0.22,0.7-0.53,0.92-0.92c0.22-0.39,0.33-0.83,0.33-1.32
			s-0.11-0.93-0.33-1.32c-0.22-0.39-0.53-0.7-0.92-0.92c-0.39-0.22-0.83-0.33-1.32-0.33s-0.93,0.11-1.32,0.33
			c-0.39,0.22-0.7,0.53-0.92,0.92c-0.22,0.39-0.33,0.83-0.33,1.32s0.11,0.93,0.33,1.32c0.22,0.39,0.53,0.7,0.92,0.92
			c0.39,0.22,0.83,0.33,1.32,0.33S176.51,153.24,176.9,153.02z"/>
		<path class="st1" d="M193.75,147.12v7.32h-1.12l-4.04-4.96v4.96h-1.35v-7.32h1.12l4.04,4.96v-4.96H193.75z"/>
		<path class="st1" d="M207.47,153.3v1.14h-5.49v-7.32h5.34v1.14h-3.98v1.9h3.53v1.12h-3.53v2.02H207.47z"/>
		<path class="st1" d="M218.34,151.86v2.58h-1.36v-2.56l-2.88-4.76h1.45l2.14,3.56l2.16-3.56h1.34L218.34,151.86z"/>
	</g>
	<g>
		<path class="st2" d="M71.92,104.77H61.44V99.8h26.84v4.97H77.8v26.66h-5.87V104.77z"/>
		<path class="st2" d="M111.17,120.27v11.16h-5.87v-11.07L92.87,99.8h6.28l9.26,15.41l9.35-15.41h5.78L111.17,120.27z"/>
		<path class="st2" d="M157.92,131.43l-0.05-20.96l-10.39,17.35h-2.62l-10.39-17.08v20.69h-5.6V99.8h4.83l12.56,20.96L158.6,99.8
			h4.83l0.05,31.63H157.92z"/>
		<path class="st2" d="M174.27,99.8h5.87v31.63h-5.87V99.8z"/>
	</g>
	<g>
		<g>
			<path class="st3" d="M206.05,98.47c0.21,0.79,0.4,1.6,0.6,2.39c7.32,0.87,13,7.1,13,14.66c0,7.87-6.16,14.3-13.92,14.75
				c0.25,0.77,0.55,1.52,0.83,2.27c8.65-0.85,15.41-8.14,15.41-17.02C221.98,106.48,214.95,99.07,206.05,98.47z"/>
			<path class="st3" d="M190.11,115.53c0-7.57,5.7-13.81,13.05-14.67c-0.3-0.74-0.6-1.48-0.87-2.24c-8.21,1.25-14.5,8.34-14.5,16.9
				c0,8.11,5.65,14.9,13.22,16.66c-0.08-0.83-0.16-1.66-0.29-2.48C194.58,127.9,190.11,122.24,190.11,115.53z"/>
			<path class="st3" d="M216.2,125.1c4.56-4.35,4.79-17.18-6.95-21.98l2.6-4.51C211.85,98.61,231.47,110.3,216.2,125.1z"/>
			<path class="st3" d="M208.73,106.66L205.52,98l8.7-0.79C210.92,99.49,209.14,102.64,208.73,106.66z"/>
			<path class="st3" d="M194.16,105.41c-4.7,4.2-5.36,17.01,6.2,22.2l-2.75,4.42C197.61,132.03,178.4,119.68,194.16,105.41z"/>
			<path class="st3" d="M200.42,125.38l2.91,7.74l-7.78,0.74C198.11,131.78,200.08,129.03,200.42,125.38z"/>
			<polygon class="st1" points="189.8,98.88 204.85,116.38 213.73,110.01 204.57,119.51 			"/>
		</g>
	</g>
</g>
</svg>
