<?xml version="1.0" encoding="utf-8"?>
<!-- Generator: Adobe Illustrator 24.0.1, SVG Export Plug-In . SVG Version: 6.00 Build 0)  -->
<svg version="1.1" id="Слой_1" xmlns="http://www.w3.org/2000/svg" xmlns:xlink="http://www.w3.org/1999/xlink" x="0px" y="0px"
	 viewBox="0 0 283.46 283.46" style="enable-background:new 0 0 283.46 283.46;" xml:space="preserve">
<style type="text/css">
	.st0{fill:#C5C5C6;}
	.st1{fill:#141C2B;}
	.st2{fill:#4A70B6;}
	.st3{fill:#FDFDFB;}
	.st4{fill:url(#SVGID_1_);}
	.st5{fill:url(#SVGID_2_);}
	.st6{fill:url(#SVGID_3_);}
	.st7{fill:url(#SVGID_4_);}
	.st8{fill:url(#SVGID_5_);}
	.st9{fill:url(#SVGID_6_);}
</style>
<rect class="st0" width="283.46" height="283.46"/>
<rect x="64.83" y="87.01" class="st1" width="151.81" height="76.57"/>
<g>
	<path class="st2" d="M86.41,142.83h-1.62v-0.77h4.15v0.77h-1.62v4.12h-0.91V142.83z"/>
	<path class="st2" d="M93.82,142.06h0.91v4.89h-0.91V142.06z"/>
	<path class="st2" d="M104.74,146.95l-0.01-3.24l-1.61,2.68h-0.41l-1.61-2.64v3.2h-0.87v-4.89h0.75l1.94,3.24l1.91-3.24h0.75
		l0.01,4.89H104.74z"/>
	<path class="st2" d="M114.78,146.19v0.76h-3.67v-4.89h3.57v0.76h-2.66v1.27h2.36v0.75h-2.36v1.35H114.78z"/>
	<path class="st2" d="M126.12,142.06h0.91v4.89h-0.91V142.06z"/>
	<path class="st2" d="M132.96,146.86c-0.35-0.11-0.63-0.25-0.84-0.43l0.31-0.71c0.2,0.16,0.45,0.29,0.74,0.39
		c0.29,0.1,0.58,0.15,0.88,0.15c0.36,0,0.63-0.06,0.81-0.17c0.18-0.12,0.27-0.27,0.27-0.46c0-0.14-0.05-0.25-0.15-0.35
		s-0.23-0.16-0.38-0.21c-0.15-0.05-0.36-0.11-0.63-0.17c-0.37-0.09-0.67-0.18-0.91-0.27c-0.23-0.09-0.43-0.23-0.59-0.42
		c-0.17-0.19-0.25-0.44-0.25-0.77c0-0.27,0.07-0.52,0.22-0.74c0.15-0.22,0.37-0.4,0.66-0.53c0.3-0.13,0.66-0.2,1.09-0.2
		c0.3,0,0.59,0.04,0.88,0.11c0.29,0.08,0.54,0.18,0.75,0.32l-0.29,0.71c-0.21-0.13-0.44-0.22-0.67-0.29s-0.46-0.1-0.68-0.1
		c-0.36,0-0.63,0.06-0.8,0.18c-0.17,0.12-0.26,0.28-0.26,0.48c0,0.14,0.05,0.25,0.15,0.34c0.1,0.09,0.23,0.16,0.38,0.21
		c0.15,0.05,0.36,0.11,0.63,0.17c0.36,0.08,0.66,0.17,0.89,0.26s0.43,0.23,0.6,0.42s0.25,0.44,0.25,0.75c0,0.27-0.07,0.51-0.22,0.73
		c-0.15,0.22-0.37,0.39-0.67,0.52c-0.3,0.13-0.66,0.2-1.09,0.2C133.68,147.02,133.31,146.97,132.96,146.86z"/>
	<path class="st2" d="M151.75,146.95l-0.01-3.24l-1.61,2.68h-0.41l-1.61-2.64v3.2h-0.87v-4.89H148l1.94,3.24l1.91-3.24h0.75
		l0.01,4.89H151.75z"/>
	<path class="st2" d="M159.06,146.7c-0.4-0.22-0.71-0.52-0.94-0.9c-0.23-0.38-0.34-0.81-0.34-1.29s0.11-0.91,0.34-1.29
		c0.23-0.39,0.54-0.69,0.94-0.9c0.4-0.22,0.85-0.33,1.35-0.33c0.5,0,0.95,0.11,1.35,0.33s0.72,0.52,0.94,0.9
		c0.23,0.38,0.34,0.81,0.34,1.29c0,0.48-0.11,0.91-0.34,1.29c-0.23,0.38-0.54,0.68-0.94,0.9s-0.85,0.33-1.35,0.33
		C159.91,147.02,159.46,146.92,159.06,146.7z M161.29,146.01c0.26-0.15,0.47-0.35,0.61-0.62c0.15-0.26,0.22-0.56,0.22-0.88
		s-0.07-0.62-0.22-0.88c-0.15-0.26-0.35-0.47-0.61-0.62c-0.26-0.15-0.55-0.22-0.88-0.22s-0.62,0.07-0.88,0.22
		c-0.26,0.15-0.47,0.35-0.62,0.62c-0.15,0.26-0.22,0.56-0.22,0.88s0.07,0.62,0.22,0.88c0.15,0.26,0.35,0.47,0.62,0.62
		c0.26,0.15,0.55,0.22,0.88,0.22S161.03,146.15,161.29,146.01z"/>
	<path class="st2" d="M172.55,142.06v4.89h-0.75l-2.7-3.31v3.31h-0.9v-4.89h0.75l2.7,3.31v-3.31H172.55z"/>
	<path class="st2" d="M181.73,146.19v0.76h-3.67v-4.89h3.57v0.76h-2.66v1.27h2.36v0.75h-2.36v1.35H181.73z"/>
	<path class="st2" d="M188.99,145.23v1.73h-0.91v-1.71l-1.92-3.18h0.97l1.43,2.38l1.45-2.38h0.89L188.99,145.23z"/>
</g>
<g>
	<path class="st3" d="M91.86,113.22h-6.98v-3.31h17.87v3.31h-6.98v17.75h-3.91V113.22z"/>
	<path class="st3" d="M116,123.54v7.43h-3.91v-7.37l-8.27-13.69h4.18l6.17,10.26l6.23-10.26h3.85L116,123.54z"/>
	<path class="st3" d="M147.35,130.97l-0.03-13.96l-6.92,11.55h-1.75l-6.92-11.37v13.78H128v-21.06h3.22l8.37,13.96l8.21-13.96h3.22
		l0.03,21.06H147.35z"/>
	<path class="st3" d="M158.24,109.91h3.91v21.06h-3.91V109.91z"/>
</g>
<g>
	<g>
		<linearGradient id="SVGID_1_" gradientUnits="userSpaceOnUse" x1="167.2373" y1="120.3698" x2="190.0148" y2="120.3698">
			<stop  offset="0" style="stop-color:#EA5166"/>
			<stop  offset="1" style="stop-color:#7E2E71"/>
		</linearGradient>
		<path class="st4" d="M179.4,109.02c0.14,0.53,0.27,1.06,0.4,1.59c4.88,0.58,8.66,4.73,8.66,9.76c0,5.24-4.1,9.53-9.27,9.82
			c0.17,0.51,0.37,1.01,0.55,1.51c5.76-0.56,10.26-5.42,10.26-11.33C190.01,114.35,185.33,109.42,179.4,109.02z"/>
		<linearGradient id="SVGID_2_" gradientUnits="userSpaceOnUse" x1="174.5288" y1="119.7859" x2="180.0095" y2="111.3265">
			<stop  offset="0" style="stop-color:#EA5166"/>
			<stop  offset="1" style="stop-color:#7E2E71"/>
		</linearGradient>
		<path class="st5" d="M168.79,120.38c0-5.04,3.8-9.2,8.69-9.77c-0.2-0.49-0.4-0.99-0.58-1.49c-5.47,0.83-9.66,5.56-9.66,11.26
			c0,5.4,3.76,9.92,8.81,11.09c-0.05-0.55-0.11-1.1-0.19-1.65C171.77,128.62,168.79,124.85,168.79,120.38z"/>
		
			<linearGradient id="SVGID_3_" gradientUnits="userSpaceOnUse" x1="123.0681" y1="17.8966" x2="133.6624" y2="17.8966" gradientTransform="matrix(0.7258 -0.6879 0.6879 0.7258 79.4421 193.0547)">
			<stop  offset="0" style="stop-color:#EA5166"/>
			<stop  offset="1" style="stop-color:#7E2E71"/>
		</linearGradient>
		<path class="st6" d="M186.16,126.75c3.04-2.9,3.19-11.44-4.63-14.64l1.73-3C183.27,109.11,196.33,116.9,186.16,126.75z"/>
		
			<linearGradient id="SVGID_4_" gradientUnits="userSpaceOnUse" x1="129.9581" y1="16.6784" x2="136.8559" y2="16.6784" gradientTransform="matrix(0.7516 -0.6596 0.6596 0.7516 70.6201 185.5031)">
			<stop  offset="0" style="stop-color:#EA5166"/>
			<stop  offset="1" style="stop-color:#7E2E71"/>
		</linearGradient>
		<path class="st7" d="M181.19,114.48l-2.14-5.77l5.79-0.53C182.65,109.7,181.47,111.8,181.19,114.48z"/>
		<linearGradient id="SVGID_5_" gradientUnits="userSpaceOnUse" x1="177.0483" y1="131.3657" x2="168.8669" y2="117.8227">
			<stop  offset="0" style="stop-color:#EA5166"/>
			<stop  offset="1" style="stop-color:#7E2E71"/>
		</linearGradient>
		<path class="st8" d="M171.49,113.64c-3.13,2.79-3.57,11.33,4.13,14.79l-1.83,2.94C173.79,131.37,160.99,123.15,171.49,113.64z"/>
		
			<linearGradient id="SVGID_6_" gradientUnits="userSpaceOnUse" x1="430.1937" y1="-22.9343" x2="436.3659" y2="-22.9343" gradientTransform="matrix(-0.7485 0.6631 -0.6631 -0.7485 484.1527 -173.5623)">
			<stop  offset="0" style="stop-color:#EA5166"/>
			<stop  offset="1" style="stop-color:#7E2E71"/>
		</linearGradient>
		<path class="st9" d="M175.66,126.94l1.94,5.15l-5.18,0.5C174.11,131.21,175.43,129.37,175.66,126.94z"/>
		<polygon class="st2" points="168.58,109.3 178.61,120.95 184.52,116.7 178.42,123.03 		"/>
	</g>
</g>
</svg>
