<svg width="155" height="167" viewBox="0 0 155 167" fill="none" xmlns="http://www.w3.org/2000/svg">
<g opacity="0.3">
<path d="M153.662 83.7819C153.662 123.886 123.043 156.913 84.4146 160.688C83.0014 157.385 82.0592 154.083 80.646 150.308C99.2268 149.274 116.061 140.331 127.5 127C128.276 126.205 130.804 123.647 127.753 126.717C144.712 110.204 152.249 94.1618 153.662 80.0073C153.662 81.4228 153.662 82.3664 153.662 83.7819Z" fill="#E7267A"/>
<path d="M68.8694 17.7276C52.3819 19.6149 37.3075 27.6358 26.9439 39.903C5.27457 59.7193 -0.849371 79.5356 1.03492 96.521C0.0927748 92.2747 0.0927734 88.0283 0.0927734 83.782C0.0927734 45.093 28.3571 13.0095 65.1008 7.34766C66.514 10.6504 67.9273 13.9531 68.8694 17.7276Z" fill="#E7267A"/>
<path d="M28.8283 38.0157C28.3572 38.4876 27.8861 38.9594 27.415 39.4312C27.415 38.9594 27.8861 38.4876 28.8283 38.0157Z" fill="url(#paint0_linear_216_3334)"/>
<path d="M127.753 126.717C148.481 106.901 149.423 49.3393 96.6626 27.6358L108.439 7.34766C108.439 7.34766 196.53 60.1911 127.753 126.717Z" fill="url(#paint1_linear_216_3334)"/>
<path d="M94.3074 43.6775L79.7041 4.51672L118.803 0.742188C104.2 11.1222 96.1917 25.2767 94.3074 43.6775Z" fill="#E7267A"/>
<path d="M28.8284 38.0157C7.63017 56.8884 4.80373 114.922 56.6217 138.041L51.6109 149.192L44.3738 157.857C44.3738 157.857 -42.3036 102.183 28.8284 38.0157Z" fill="url(#paint2_linear_216_3334)"/>
<path d="M56.6215 128.133L69.8115 163.047L34.9521 166.35C46.2579 156.914 55.2083 144.646 56.6215 128.133Z" fill="#E7267A"/>
<path d="M9.04346 8.76306L76.8779 87.5564L116.448 58.7756L75.4647 101.711L9.04346 8.76306Z" fill="#4B71B6"/>
</g>
<defs>
<linearGradient id="paint0_linear_216_3334" x1="27.0231" y1="38.756" x2="28.6248" y2="38.756" gradientUnits="userSpaceOnUse">
<stop stop-color="#E7267A"/>
<stop offset="1" stop-color="#E7267A" stop-opacity="0"/>
</linearGradient>
<linearGradient id="paint1_linear_216_3334" x1="96.5331" y1="67.0306" x2="153.978" y2="67.0306" gradientUnits="userSpaceOnUse">
<stop stop-color="#E7267A"/>
<stop offset="1" stop-color="#E7267A" stop-opacity="0"/>
</linearGradient>
<linearGradient id="paint2_linear_216_3334" x1="0.663001" y1="97.9747" x2="56.5186" y2="97.9747" gradientUnits="userSpaceOnUse">
<stop stop-color="#E7267A" stop-opacity="0"/>
<stop offset="1" stop-color="#E7267A"/>
</linearGradient>
</defs>
</svg>
