<svg width="385" height="899" viewBox="0 0 385 899" fill="none" xmlns="http://www.w3.org/2000/svg">
<path d="M192.293 898.43C189.493 898.43 186.694 897.784 184.325 896.277L3.01467 791.625C1.07667 790.548 0 788.61 0 786.241C0 783.873 1.07667 782.15 3.01467 780.858L184.325 676.206C189.278 673.407 195.307 673.407 200.26 676.206L381.571 780.858C383.509 781.935 384.585 783.873 384.585 786.241C384.585 788.395 383.509 790.333 381.571 791.625L200.26 896.277C197.891 897.784 195.092 898.43 192.293 898.43ZM187.125 891.539C190.355 893.477 194.231 893.477 197.461 891.539L378.771 786.887C378.987 786.887 378.987 786.672 378.987 786.457C378.987 786.241 378.987 786.026 378.771 786.026L197.461 681.374C194.231 679.436 190.355 679.436 187.125 681.374L5.81401 786.026C5.59868 786.026 5.59868 786.241 5.59868 786.457C5.59868 786.672 5.59868 786.887 5.81401 786.887L187.125 891.539Z" fill="url(#paint0_linear_194_276)"/>
<path opacity="0.66" d="M184.11 855.363L71.921 790.548C67.399 787.964 68.045 783.442 73.213 780.212L182.818 716.904C187.986 713.889 195.953 713.459 200.475 716.258L312.664 781.073C317.186 783.657 316.54 788.179 311.372 791.409L201.767 854.717C196.599 857.517 188.632 857.947 184.11 855.363Z" fill="#1D1245"/>
<path opacity="0.66" d="M184.11 855.363L71.921 790.548C67.399 787.964 68.045 783.442 73.213 780.212L182.818 716.904C187.986 713.889 195.953 713.459 200.475 716.258L312.664 781.073C317.186 783.657 316.54 788.179 311.372 791.409L201.767 854.717C196.599 857.517 188.632 857.947 184.11 855.363Z" fill="url(#paint1_radial_194_276)"/>
<path d="M71.9212 790.548L81.8265 796.147L183.033 737.791C188.201 734.777 196.168 734.346 200.69 737.146L302.974 796.362L311.587 791.409C316.755 788.395 317.401 783.873 312.879 781.073L200.69 716.258C196.168 713.674 188.201 713.89 183.033 716.904L73.4285 780.212C67.8298 783.227 67.1838 787.964 71.9212 790.548Z" fill="#627EEB"/>
<path opacity="0.4" d="M315.894 0.844666H68.6911V785.811C68.4758 787.533 69.5524 789.256 71.7058 790.548L183.894 855.363C188.416 857.947 196.384 857.732 201.552 854.717L311.156 791.409C313.956 789.902 315.248 787.749 315.463 786.026V0.844666H315.894Z" fill="url(#paint2_linear_194_276)"/>
<defs>
<linearGradient id="paint0_linear_194_276" x1="-0.101853" y1="786.4" x2="384.656" y2="786.4" gradientUnits="userSpaceOnUse">
<stop stop-color="#1D1245" stop-opacity="0.5"/>
<stop offset="0.520833" stop-color="#627EEB"/>
<stop offset="1" stop-color="#1D1245" stop-opacity="0.5"/>
</linearGradient>
<radialGradient id="paint1_radial_194_276" cx="0" cy="0" r="1" gradientUnits="userSpaceOnUse" gradientTransform="translate(192.282 841.812) scale(100.864 100.864)">
<stop stop-color="#627EEB"/>
<stop offset="0.3746" stop-color="#6078E7"/>
<stop offset="0.8974" stop-color="#5965DA"/>
<stop offset="1" stop-color="#5761D7"/>
</radialGradient>
<linearGradient id="paint2_linear_194_276" x1="192.273" y1="857.068" x2="192.273" y2="190.741" gradientUnits="userSpaceOnUse">
<stop offset="5.32779e-09" stop-color="#627EEB"/>
<stop offset="1" stop-color="#1D1245" stop-opacity="0"/>
</linearGradient>
</defs>
</svg>
