<svg width="612" height="374" viewBox="0 0 612 374" fill="none" xmlns="http://www.w3.org/2000/svg">
<mask id="mask0_906_23662" style="mask-type:alpha" maskUnits="userSpaceOnUse" x="0" y="0" width="612" height="374">
<rect x="612" y="374" width="612" height="374" rx="10" transform="rotate(-180 612 374)" fill="#D9D9D9"/>
</mask>
<g mask="url(#mask0_906_23662)">
<mask id="mask1_906_23662" style="mask-type:luminance" maskUnits="userSpaceOnUse" x="-31" y="-259" width="766" height="844">
<path d="M735 585L735 -258.174L-30.9503 -258.174L-30.9503 585L735 585Z" fill="white"/>
</mask>
<g mask="url(#mask1_906_23662)">
<g filter="url(#filter0_f_906_23662)">
<path d="M629 536L629 27.9971L172.781 27.9971L172.781 536L629 536Z" fill="#DF39EA"/>
<path d="M628.067 168.095L628.067 -260.026L56.477 -260.026L56.477 168.095L628.067 168.095Z" fill="#A180FF"/>
<path d="M539.001 300.532L539.001 -324.421L126.346 -324.421L126.346 300.532L539.001 300.532Z" fill="#1C102F"/>
</g>
</g>
</g>
<line x1="107.5" y1="45" x2="107.5" y2="323" stroke="#A180FF"/>
<line x1="286.5" y1="45" x2="286.5" y2="323" stroke="#A180FF"/>
<line x1="575" y1="323.5" x2="108" y2="323.5" stroke="#A180FF"/>
<path d="M102.394 206.869L106.619 213.856L113.606 209.631L109.381 202.644L102.394 206.869ZM289.183 299.112L291.612 291.317L283.817 288.888L281.388 296.683L289.183 299.112ZM174.479 224.632L174.24 225.603L174.479 224.632ZM181.499 224.549L181.761 225.514L181.499 224.549ZM107.761 209.221L174.24 225.603L174.719 223.661L108.239 207.279L107.761 209.221ZM181.761 225.514L230.917 212.161L230.393 210.231L181.237 223.584L181.761 225.514ZM245.837 218.666L285.615 294.465L287.385 293.535L247.607 217.736L245.837 218.666ZM230.917 212.161C236.8 210.563 243.004 213.267 245.837 218.666L247.607 217.736C244.339 211.508 237.181 208.387 230.393 210.231L230.917 212.161ZM174.24 225.603C176.714 226.213 179.302 226.182 181.761 225.514L181.237 223.584C179.106 224.163 176.863 224.19 174.719 223.661L174.24 225.603Z" fill="#C9E68C"/>
<path d="M41.136 56V44.56H45.904C47.0453 44.56 47.952 44.8427 48.624 45.408C49.3067 45.9627 49.648 46.816 49.648 47.968C49.648 49.12 49.3067 49.9733 48.624 50.528C47.952 51.0827 47.0453 51.36 45.904 51.36H42.896V56H41.136ZM45.824 49.84C46.496 49.84 46.9973 49.6907 47.328 49.392C47.6587 49.0827 47.824 48.608 47.824 47.968C47.824 47.328 47.6587 46.8533 47.328 46.544C46.9973 46.2347 46.496 46.08 45.824 46.08H42.896V49.84H45.824ZM51.4404 56V44.56H56.2084C57.467 44.56 58.427 44.848 59.0884 45.424C59.7604 45.9893 60.0964 46.8 60.0964 47.856C60.0964 48.5707 59.899 49.1787 59.5044 49.68C59.1097 50.1813 58.5924 50.5067 57.9524 50.656V50.688C58.507 50.7947 58.923 51.056 59.2004 51.472C59.4884 51.888 59.675 52.3467 59.7604 52.848C59.8564 53.3493 59.9257 53.936 59.9684 54.608C60.0004 55.0453 60.0324 55.36 60.0644 55.552C60.0964 55.744 60.1604 55.856 60.2564 55.888V56H58.3684C58.2937 55.936 58.2457 55.824 58.2244 55.664C58.2137 55.4933 58.203 55.216 58.1924 54.832C58.1817 54.192 58.1337 53.648 58.0484 53.2C57.9737 52.752 57.787 52.3627 57.4884 52.032C57.2004 51.6907 56.7524 51.52 56.1444 51.52H53.2004V56H51.4404ZM55.8244 50C56.635 50 57.2537 49.8293 57.6804 49.488C58.107 49.136 58.3204 48.6347 58.3204 47.984C58.3204 47.3547 58.123 46.88 57.7284 46.56C57.3444 46.24 56.7204 46.08 55.8564 46.08H53.2004V50H55.8244ZM64.0204 56H62.2604V44.56H64.0204V56ZM71.3956 56.224C70.329 56.224 69.3903 55.9733 68.5796 55.472C67.7796 54.96 67.1556 54.256 66.7076 53.36C66.2703 52.4533 66.0516 51.4293 66.0516 50.288C66.0516 49.1467 66.2703 48.1227 66.7076 47.216C67.1556 46.3093 67.785 45.6053 68.5956 45.104C69.4063 44.592 70.345 44.336 71.4116 44.336C72.3396 44.336 73.1556 44.5173 73.8596 44.88C74.5743 45.2427 75.1396 45.7333 75.5556 46.352C75.9716 46.9707 76.2276 47.6693 76.3236 48.448H74.4836C74.3556 47.7333 74.0516 47.1253 73.5716 46.624C73.0916 46.112 72.361 45.856 71.3796 45.856C70.1956 45.856 69.3156 46.2773 68.7396 47.12C68.1743 47.9627 67.8916 49.0133 67.8916 50.272C67.8916 51.5413 68.1743 52.5973 68.7396 53.44C69.3156 54.2827 70.1956 54.704 71.3796 54.704C72.393 54.704 73.145 54.432 73.6356 53.888C74.137 53.3333 74.4196 52.6507 74.4836 51.84H76.3236C76.2383 52.6933 75.9876 53.4507 75.5716 54.112C75.1556 54.7733 74.5903 55.2907 73.8756 55.664C73.161 56.0373 72.3343 56.224 71.3956 56.224ZM86.4845 56H78.2285V44.56H86.3245V46.08H79.9885V49.328H85.5405V50.848H79.9885V54.48H86.4845V56Z" fill="#EEEAF7" fill-opacity="0.5"/>
<path d="M311.984 56H310.208V51.424L306.112 44.56H308.016L311.088 50.032H311.12L314.192 44.56H316.08L311.984 51.424V56ZM321.84 56.224C320.72 56.224 319.733 55.968 318.88 55.456C318.037 54.944 317.381 54.24 316.912 53.344C316.453 52.4373 316.224 51.4133 316.224 50.272C316.224 49.1307 316.453 48.112 316.912 47.216C317.381 46.3093 318.037 45.6053 318.88 45.104C319.733 44.592 320.72 44.336 321.84 44.336C322.96 44.336 323.941 44.592 324.784 45.104C325.637 45.6053 326.293 46.3093 326.752 47.216C327.221 48.112 327.456 49.1307 327.456 50.272C327.456 51.4133 327.221 52.4373 326.752 53.344C326.293 54.24 325.637 54.944 324.784 55.456C323.941 55.968 322.96 56.224 321.84 56.224ZM321.84 54.704C323.109 54.704 324.053 54.288 324.672 53.456C325.301 52.6133 325.616 51.552 325.616 50.272C325.616 48.992 325.301 47.936 324.672 47.104C324.053 46.272 323.109 45.856 321.84 45.856C320.571 45.856 319.621 46.272 318.992 47.104C318.373 47.936 318.064 48.992 318.064 50.272C318.064 51.552 318.373 52.6133 318.992 53.456C319.621 54.288 320.571 54.704 321.84 54.704ZM333.879 56.224C332.364 56.224 331.239 55.8613 330.503 55.136C329.777 54.4107 329.415 53.4027 329.415 52.112V44.56H331.175V52.112C331.175 52.9973 331.399 53.6533 331.847 54.08C332.295 54.496 332.972 54.704 333.879 54.704C334.796 54.704 335.473 54.496 335.911 54.08C336.359 53.6533 336.583 52.9973 336.583 52.112V44.56H338.359V52.112C338.359 53.4027 337.991 54.4107 337.255 55.136C336.529 55.8613 335.404 56.224 333.879 56.224ZM349.149 56.224C348.072 56.224 347.144 55.9733 346.365 55.472C345.597 54.96 345.01 54.256 344.605 53.36C344.2 52.464 343.997 51.4347 343.997 50.272C343.997 49.1307 344.216 48.112 344.653 47.216C345.101 46.3093 345.73 45.6053 346.541 45.104C347.352 44.592 348.29 44.336 349.357 44.336C350.776 44.336 351.896 44.6773 352.717 45.36C353.549 46.0427 354.061 46.9547 354.253 48.096H352.413C352.264 47.3707 351.922 46.816 351.389 46.432C350.866 46.048 350.184 45.856 349.341 45.856C348.541 45.856 347.88 46.0693 347.357 46.496C346.834 46.912 346.45 47.456 346.205 48.128C345.96 48.7893 345.837 49.504 345.837 50.272C345.837 51.5307 346.098 52.5867 346.621 53.44C347.144 54.2827 348.018 54.704 349.245 54.704C349.874 54.704 350.445 54.5707 350.957 54.304C351.48 54.0267 351.89 53.6427 352.189 53.152C352.498 52.6613 352.653 52.1067 352.653 51.488H349.277V50.016H354.445V56H353.229L352.797 54.416H352.765C352.349 55.024 351.853 55.4773 351.277 55.776C350.701 56.0747 349.992 56.224 349.149 56.224ZM364.914 56H356.658V44.56H364.754V46.08H358.418V49.328H363.97V50.848H358.418V54.48H364.914V56ZM371.257 56H369.481V46.08H365.785V44.56H374.953V46.08H371.257V56Z" fill="#EEEAF7" fill-opacity="0.5"/>
<path d="M48.688 260H41.136V248.56H42.896V258.48H48.688V260ZM52.1379 260H50.3779V248.56H52.1379V260ZM56.4571 260H54.7291V248.56H57.0491L60.3451 257.552H60.3771L63.6891 248.56H66.0091V260H64.2811V251.12H64.2491L61.0971 260H59.6411L56.4891 251.12H56.4571V260ZM70.356 260H68.596V248.56H70.356V260ZM77.5233 260H75.7473V250.08H72.0513V248.56H81.2193V250.08H77.5233V260ZM91.1745 260.224C90.0545 260.224 89.0678 259.968 88.2145 259.456C87.3718 258.944 86.7158 258.24 86.2465 257.344C85.7878 256.437 85.5585 255.413 85.5585 254.272C85.5585 253.131 85.7878 252.112 86.2465 251.216C86.7158 250.309 87.3718 249.605 88.2145 249.104C89.0678 248.592 90.0545 248.336 91.1745 248.336C92.2945 248.336 93.2758 248.592 94.1185 249.104C94.9718 249.605 95.6278 250.309 96.0865 251.216C96.5558 252.112 96.7905 253.131 96.7905 254.272C96.7905 255.413 96.5558 256.437 96.0865 257.344C95.6278 258.24 94.9718 258.944 94.1185 259.456C93.2758 259.968 92.2945 260.224 91.1745 260.224ZM91.1745 258.704C92.4438 258.704 93.3878 258.288 94.0065 257.456C94.6358 256.613 94.9505 255.552 94.9505 254.272C94.9505 252.992 94.6358 251.936 94.0065 251.104C93.3878 250.272 92.4438 249.856 91.1745 249.856C89.9052 249.856 88.9558 250.272 88.3265 251.104C87.7078 251.936 87.3985 252.992 87.3985 254.272C87.3985 255.552 87.7078 256.613 88.3265 257.456C88.9558 258.288 89.9052 258.704 91.1745 258.704ZM98.8291 260V248.56H103.597C104.856 248.56 105.816 248.848 106.477 249.424C107.149 249.989 107.485 250.8 107.485 251.856C107.485 252.571 107.288 253.179 106.893 253.68C106.498 254.181 105.981 254.507 105.341 254.656V254.688C105.896 254.795 106.312 255.056 106.589 255.472C106.877 255.888 107.064 256.347 107.149 256.848C107.245 257.349 107.314 257.936 107.357 258.608C107.389 259.045 107.421 259.36 107.453 259.552C107.485 259.744 107.549 259.856 107.645 259.888V260H105.757C105.682 259.936 105.634 259.824 105.613 259.664C105.602 259.493 105.592 259.216 105.581 258.832C105.57 258.192 105.522 257.648 105.437 257.2C105.362 256.752 105.176 256.363 104.877 256.032C104.589 255.691 104.141 255.52 103.533 255.52H100.589V260H98.8291ZM103.213 254C104.024 254 104.642 253.829 105.069 253.488C105.496 253.136 105.709 252.635 105.709 251.984C105.709 251.355 105.512 250.88 105.117 250.56C104.733 250.24 104.109 250.08 103.245 250.08H100.589V254H103.213ZM109.649 260V248.56H114.001C115.601 248.56 116.849 249.061 117.745 250.064C118.641 251.056 119.089 252.464 119.089 254.288C119.089 256.112 118.646 257.52 117.761 258.512C116.876 259.504 115.633 260 114.033 260H109.649ZM113.921 258.48C116.15 258.48 117.265 257.083 117.265 254.288C117.265 251.483 116.15 250.08 113.921 250.08H111.409V258.48H113.921ZM129.413 260H121.157V248.56H129.253V250.08H122.917V253.328H128.469V254.848H122.917V258.48H129.413V260ZM131.383 260V248.56H136.151C137.41 248.56 138.37 248.848 139.031 249.424C139.703 249.989 140.039 250.8 140.039 251.856C140.039 252.571 139.842 253.179 139.447 253.68C139.052 254.181 138.535 254.507 137.895 254.656V254.688C138.45 254.795 138.866 255.056 139.143 255.472C139.431 255.888 139.618 256.347 139.703 256.848C139.799 257.349 139.868 257.936 139.911 258.608C139.943 259.045 139.975 259.36 140.007 259.552C140.039 259.744 140.103 259.856 140.199 259.888V260H138.311C138.236 259.936 138.188 259.824 138.167 259.664C138.156 259.493 138.146 259.216 138.135 258.832C138.124 258.192 138.076 257.648 137.991 257.2C137.916 256.752 137.73 256.363 137.431 256.032C137.143 255.691 136.695 255.52 136.087 255.52H133.143V260H131.383ZM135.767 254C136.578 254 137.196 253.829 137.623 253.488C138.05 253.136 138.263 252.635 138.263 251.984C138.263 251.355 138.066 250.88 137.671 250.56C137.287 250.24 136.663 250.08 135.799 250.08H133.143V254H135.767Z" fill="#C9E68C"/>
<path d="M541.712 344H539.936V334.08H536.24V332.56H545.408V334.08H541.712V344ZM548.857 344H547.097V332.56H548.857V344ZM553.176 344H551.448V332.56H553.768L557.064 341.552H557.096L560.408 332.56H562.728V344H561V335.12H560.968L557.816 344H556.36L553.208 335.12H553.176V344ZM573.571 344H565.315V332.56H573.411V334.08H567.075V337.328H572.627V338.848H567.075V342.48H573.571V344Z" fill="#EEEAF7" fill-opacity="0.5"/>
<path d="M102.238 208.36L108.36 213.762L113.762 207.64L107.64 202.238L102.238 208.36ZM280.227 145L286 150.774L291.773 145L286 139.226L280.227 145ZM235.033 148.493L235.694 149.244L235.033 148.493ZM175.596 200.833L174.935 200.083L175.596 200.833ZM108.062 208.998L167.28 205.297L167.155 203.301L107.938 207.002L108.062 208.998ZM176.257 201.584L235.694 149.244L234.372 147.743L174.935 200.083L176.257 201.584ZM244.286 146H287.5V144H244.286V146ZM287.5 144H286V146H287.5V144ZM235.694 149.244C238.068 147.153 241.123 146 244.286 146V144C240.636 144 237.111 145.331 234.372 147.743L235.694 149.244ZM167.28 205.297C170.601 205.089 173.76 203.783 176.257 201.584L174.935 200.083C172.771 201.989 170.034 203.121 167.155 203.301L167.28 205.297Z" fill="#C9E68C"/>
<path d="M49.12 136.104C49.12 136.979 48.8 137.709 48.16 138.296C47.52 138.872 46.6027 139.181 45.408 139.224V140.616H44.448V139.192C43.2853 139.075 42.336 138.685 41.6 138.024C40.864 137.363 40.4693 136.472 40.416 135.352H42.048C42.112 136.056 42.3413 136.616 42.736 137.032C43.1413 137.437 43.712 137.688 44.448 137.784V133.96L44.4 133.944C43.3333 133.656 42.4747 133.288 41.824 132.84C41.184 132.392 40.864 131.741 40.864 130.888C40.864 129.981 41.184 129.256 41.824 128.712C42.4747 128.157 43.3493 127.859 44.448 127.816V126.68H45.408V127.864C46.4 127.992 47.2 128.36 47.808 128.968C48.4267 129.565 48.768 130.371 48.832 131.384H47.2C47.0613 130.2 46.464 129.501 45.408 129.288V132.696C46.2827 132.952 46.9707 133.197 47.472 133.432C47.9733 133.667 48.3733 133.997 48.672 134.424C48.9707 134.84 49.12 135.4 49.12 136.104ZM42.512 130.728C42.512 131.165 42.6667 131.501 42.976 131.736C43.296 131.971 43.7867 132.195 44.448 132.408V129.224C43.8507 129.256 43.376 129.405 43.024 129.672C42.6827 129.928 42.512 130.28 42.512 130.728ZM45.408 137.832C46.784 137.757 47.472 137.197 47.472 136.152C47.472 135.651 47.312 135.267 46.992 135C46.672 134.723 46.144 134.467 45.408 134.232V137.832ZM52.4886 130.792C52.2646 130.995 51.9606 131.133 51.5766 131.208C51.2033 131.283 50.734 131.32 50.1686 131.32V129.912C50.8086 129.901 51.3153 129.827 51.6886 129.688C52.062 129.539 52.334 129.325 52.5046 129.048C52.6753 128.771 52.7873 128.403 52.8406 127.944H54.2166V139H52.4886V130.792ZM60.8218 139.224C59.3498 139.224 58.2458 138.691 57.5098 137.624C56.7844 136.557 56.4218 135.176 56.4218 133.48C56.4218 132.381 56.5764 131.4 56.8858 130.536C57.2058 129.672 57.6911 128.989 58.3418 128.488C59.0031 127.976 59.8298 127.72 60.8218 127.72C62.2831 127.72 63.3764 128.259 64.1018 129.336C64.8378 130.403 65.2058 131.784 65.2058 133.48C65.2058 135.176 64.8431 136.557 64.1178 137.624C63.3924 138.691 62.2938 139.224 60.8218 139.224ZM60.8218 137.736C61.7498 137.736 62.4111 137.347 62.8058 136.568C63.2004 135.779 63.3978 134.749 63.3978 133.48C63.3978 132.211 63.1951 131.181 62.7898 130.392C62.3951 129.603 61.7391 129.208 60.8218 129.208C59.8938 129.208 59.2271 129.603 58.8218 130.392C58.4271 131.171 58.2298 132.2 58.2298 133.48C58.2298 134.749 58.4271 135.779 58.8218 136.568C59.2271 137.347 59.8938 137.736 60.8218 137.736ZM71.298 139.224C69.826 139.224 68.722 138.691 67.986 137.624C67.2607 136.557 66.898 135.176 66.898 133.48C66.898 132.381 67.0527 131.4 67.362 130.536C67.682 129.672 68.1673 128.989 68.818 128.488C69.4793 127.976 70.306 127.72 71.298 127.72C72.7593 127.72 73.8527 128.259 74.578 129.336C75.314 130.403 75.682 131.784 75.682 133.48C75.682 135.176 75.3193 136.557 74.594 137.624C73.8687 138.691 72.77 139.224 71.298 139.224ZM71.298 137.736C72.226 137.736 72.8873 137.347 73.282 136.568C73.6767 135.779 73.874 134.749 73.874 133.48C73.874 132.211 73.6713 131.181 73.266 130.392C72.8713 129.603 72.2153 129.208 71.298 129.208C70.37 129.208 69.7033 129.603 69.298 130.392C68.9033 131.171 68.706 132.2 68.706 133.48C68.706 134.749 68.9033 135.779 69.298 136.568C69.7033 137.347 70.37 137.736 71.298 137.736ZM81.7742 139.224C80.3022 139.224 79.1982 138.691 78.4622 137.624C77.7369 136.557 77.3742 135.176 77.3742 133.48C77.3742 132.381 77.5289 131.4 77.8382 130.536C78.1582 129.672 78.6436 128.989 79.2942 128.488C79.9556 127.976 80.7822 127.72 81.7742 127.72C83.2356 127.72 84.3289 128.259 85.0542 129.336C85.7902 130.403 86.1582 131.784 86.1582 133.48C86.1582 135.176 85.7956 136.557 85.0702 137.624C84.3449 138.691 83.2462 139.224 81.7742 139.224ZM81.7742 137.736C82.7022 137.736 83.3636 137.347 83.7582 136.568C84.1529 135.779 84.3502 134.749 84.3502 133.48C84.3502 132.211 84.1476 131.181 83.7422 130.392C83.3476 129.603 82.6916 129.208 81.7742 129.208C80.8462 129.208 80.1796 129.603 79.7742 130.392C79.3796 131.171 79.1822 132.2 79.1822 133.48C79.1822 134.749 79.3796 135.779 79.7742 136.568C80.1796 137.347 80.8462 137.736 81.7742 137.736Z" fill="#A180FF"/>
<path d="M49.12 212.104C49.12 212.979 48.8 213.709 48.16 214.296C47.52 214.872 46.6027 215.181 45.408 215.224V216.616H44.448V215.192C43.2853 215.075 42.336 214.685 41.6 214.024C40.864 213.363 40.4693 212.472 40.416 211.352H42.048C42.112 212.056 42.3413 212.616 42.736 213.032C43.1413 213.437 43.712 213.688 44.448 213.784V209.96L44.4 209.944C43.3333 209.656 42.4747 209.288 41.824 208.84C41.184 208.392 40.864 207.741 40.864 206.888C40.864 205.981 41.184 205.256 41.824 204.712C42.4747 204.157 43.3493 203.859 44.448 203.816V202.68H45.408V203.864C46.4 203.992 47.2 204.36 47.808 204.968C48.4267 205.565 48.768 206.371 48.832 207.384H47.2C47.0613 206.2 46.464 205.501 45.408 205.288V208.696C46.2827 208.952 46.9707 209.197 47.472 209.432C47.9733 209.667 48.3733 209.997 48.672 210.424C48.9707 210.84 49.12 211.4 49.12 212.104ZM42.512 206.728C42.512 207.165 42.6667 207.501 42.976 207.736C43.296 207.971 43.7867 208.195 44.448 208.408V205.224C43.8507 205.256 43.376 205.405 43.024 205.672C42.6827 205.928 42.512 206.28 42.512 206.728ZM45.408 213.832C46.784 213.757 47.472 213.197 47.472 212.152C47.472 211.651 47.312 211.267 46.992 211C46.672 210.723 46.144 210.467 45.408 210.232V213.832ZM54.5206 215.224C53.8486 215.224 53.2513 215.091 52.7286 214.824C52.206 214.547 51.7846 214.179 51.4646 213.72C51.1553 213.261 50.9633 212.755 50.8886 212.2H52.6806C52.7446 212.691 52.926 213.08 53.2246 213.368C53.534 213.645 53.9713 213.784 54.5366 213.784C55.4753 213.784 56.142 213.427 56.5366 212.712C56.9313 211.987 57.1286 211.069 57.1286 209.96V209.8L57.0806 209.784C56.7926 210.253 56.398 210.616 55.8966 210.872C55.406 211.117 54.8513 211.24 54.2326 211.24C53.5286 211.24 52.8993 211.085 52.3446 210.776C51.8006 210.467 51.374 210.035 51.0646 209.48C50.7553 208.915 50.6006 208.275 50.6006 207.56C50.6006 206.845 50.7606 206.195 51.0806 205.608C51.4006 205.021 51.8593 204.563 52.4566 204.232C53.054 203.891 53.7526 203.72 54.5526 203.72C57.422 203.72 58.8566 205.629 58.8566 209.448C58.8566 211.272 58.478 212.691 57.7206 213.704C56.9633 214.717 55.8966 215.224 54.5206 215.224ZM54.4886 209.784C55.2353 209.784 55.8273 209.571 56.2646 209.144C56.7126 208.707 56.9366 208.136 56.9366 207.432C56.9366 206.749 56.7286 206.2 56.3126 205.784C55.9073 205.368 55.3313 205.16 54.5846 205.16C53.8806 205.16 53.3313 205.368 52.9366 205.784C52.5526 206.2 52.3606 206.76 52.3606 207.464C52.3606 208.189 52.5526 208.76 52.9366 209.176C53.3206 209.581 53.838 209.784 54.4886 209.784ZM64.978 215.224C63.506 215.224 62.402 214.691 61.666 213.624C60.9407 212.557 60.578 211.176 60.578 209.48C60.578 208.381 60.7327 207.4 61.042 206.536C61.362 205.672 61.8473 204.989 62.498 204.488C63.1593 203.976 63.986 203.72 64.978 203.72C66.4393 203.72 67.5327 204.259 68.258 205.336C68.994 206.403 69.362 207.784 69.362 209.48C69.362 211.176 68.9993 212.557 68.274 213.624C67.5487 214.691 66.45 215.224 64.978 215.224ZM64.978 213.736C65.906 213.736 66.5673 213.347 66.962 212.568C67.3567 211.779 67.554 210.749 67.554 209.48C67.554 208.211 67.3513 207.181 66.946 206.392C66.5513 205.603 65.8953 205.208 64.978 205.208C64.05 205.208 63.3833 205.603 62.978 206.392C62.5833 207.171 62.386 208.2 62.386 209.48C62.386 210.749 62.5833 211.779 62.978 212.568C63.3833 213.347 64.05 213.736 64.978 213.736ZM75.4542 215.224C73.9822 215.224 72.8782 214.691 72.1422 213.624C71.4169 212.557 71.0542 211.176 71.0542 209.48C71.0542 208.381 71.2089 207.4 71.5182 206.536C71.8382 205.672 72.3236 204.989 72.9742 204.488C73.6356 203.976 74.4622 203.72 75.4542 203.72C76.9156 203.72 78.0089 204.259 78.7342 205.336C79.4702 206.403 79.8382 207.784 79.8382 209.48C79.8382 211.176 79.4756 212.557 78.7502 213.624C78.0249 214.691 76.9262 215.224 75.4542 215.224ZM75.4542 213.736C76.3822 213.736 77.0436 213.347 77.4382 212.568C77.8329 211.779 78.0302 210.749 78.0302 209.48C78.0302 208.211 77.8276 207.181 77.4222 206.392C77.0276 205.603 76.3716 205.208 75.4542 205.208C74.5262 205.208 73.8596 205.603 73.4542 206.392C73.0596 207.171 72.8622 208.2 72.8622 209.48C72.8622 210.749 73.0596 211.779 73.4542 212.568C73.8596 213.347 74.5262 213.736 75.4542 213.736Z" fill="#A180FF"/>
<path d="M49.12 288.104C49.12 288.979 48.8 289.709 48.16 290.296C47.52 290.872 46.6027 291.181 45.408 291.224V292.616H44.448V291.192C43.2853 291.075 42.336 290.685 41.6 290.024C40.864 289.363 40.4693 288.472 40.416 287.352H42.048C42.112 288.056 42.3413 288.616 42.736 289.032C43.1413 289.437 43.712 289.688 44.448 289.784V285.96L44.4 285.944C43.3333 285.656 42.4747 285.288 41.824 284.84C41.184 284.392 40.864 283.741 40.864 282.888C40.864 281.981 41.184 281.256 41.824 280.712C42.4747 280.157 43.3493 279.859 44.448 279.816V278.68H45.408V279.864C46.4 279.992 47.2 280.36 47.808 280.968C48.4267 281.565 48.768 282.371 48.832 283.384H47.2C47.0613 282.2 46.464 281.501 45.408 281.288V284.696C46.2827 284.952 46.9707 285.197 47.472 285.432C47.9733 285.667 48.3733 285.997 48.672 286.424C48.9707 286.84 49.12 287.4 49.12 288.104ZM42.512 282.728C42.512 283.165 42.6667 283.501 42.976 283.736C43.296 283.971 43.7867 284.195 44.448 284.408V281.224C43.8507 281.256 43.376 281.405 43.024 281.672C42.6827 281.928 42.512 282.28 42.512 282.728ZM45.408 289.832C46.784 289.757 47.472 289.197 47.472 288.152C47.472 287.651 47.312 287.267 46.992 287C46.672 286.723 46.144 286.467 45.408 286.232V289.832ZM54.8086 291.224C53.55 291.224 52.526 290.936 51.7366 290.36C50.958 289.784 50.5686 288.957 50.5686 287.88C50.5686 287.187 50.7553 286.627 51.1286 286.2C51.5126 285.763 52.014 285.405 52.6326 285.128V285.096C51.6193 284.563 51.1126 283.773 51.1126 282.728C51.1126 281.8 51.454 281.069 52.1366 280.536C52.8193 279.992 53.71 279.72 54.8086 279.72C55.9073 279.72 56.798 279.987 57.4806 280.52C58.174 281.053 58.5206 281.789 58.5206 282.728C58.5206 283.763 58.014 284.552 57.0006 285.096V285.128C57.6193 285.405 58.1153 285.763 58.4886 286.2C58.8726 286.627 59.0646 287.187 59.0646 287.88C59.0646 288.957 58.67 289.784 57.8806 290.36C57.0913 290.936 56.0673 291.224 54.8086 291.224ZM54.8086 284.44C55.4486 284.44 55.9393 284.307 56.2806 284.04C56.622 283.763 56.7926 283.347 56.7926 282.792C56.7926 282.248 56.6166 281.837 56.2646 281.56C55.9233 281.272 55.438 281.128 54.8086 281.128C54.1793 281.128 53.694 281.272 53.3526 281.56C53.0113 281.837 52.8406 282.248 52.8406 282.792C52.8406 283.336 53.0113 283.747 53.3526 284.024C53.694 284.301 54.1793 284.44 54.8086 284.44ZM54.8086 289.784C55.5766 289.784 56.174 289.608 56.6006 289.256C57.038 288.904 57.2566 288.413 57.2566 287.784C57.2566 287.165 57.038 286.685 56.6006 286.344C56.174 285.992 55.5766 285.816 54.8086 285.816C54.0406 285.816 53.438 285.992 53.0006 286.344C52.574 286.685 52.3606 287.165 52.3606 287.784C52.3606 288.413 52.574 288.904 53.0006 289.256C53.438 289.608 54.0406 289.784 54.8086 289.784ZM65.0874 291.224C63.6154 291.224 62.5114 290.691 61.7754 289.624C61.05 288.557 60.6874 287.176 60.6874 285.48C60.6874 284.381 60.842 283.4 61.1514 282.536C61.4714 281.672 61.9567 280.989 62.6074 280.488C63.2687 279.976 64.0954 279.72 65.0874 279.72C66.5487 279.72 67.642 280.259 68.3674 281.336C69.1034 282.403 69.4714 283.784 69.4714 285.48C69.4714 287.176 69.1087 288.557 68.3834 289.624C67.658 290.691 66.5594 291.224 65.0874 291.224ZM65.0874 289.736C66.0154 289.736 66.6767 289.347 67.0714 288.568C67.466 287.779 67.6634 286.749 67.6634 285.48C67.6634 284.211 67.4607 283.181 67.0554 282.392C66.6607 281.603 66.0047 281.208 65.0874 281.208C64.1594 281.208 63.4927 281.603 63.0874 282.392C62.6927 283.171 62.4954 284.2 62.4954 285.48C62.4954 286.749 62.6927 287.779 63.0874 288.568C63.4927 289.347 64.1594 289.736 65.0874 289.736ZM75.5636 291.224C74.0916 291.224 72.9876 290.691 72.2516 289.624C71.5263 288.557 71.1636 287.176 71.1636 285.48C71.1636 284.381 71.3183 283.4 71.6276 282.536C71.9476 281.672 72.433 280.989 73.0836 280.488C73.745 279.976 74.5716 279.72 75.5636 279.72C77.025 279.72 78.1183 280.259 78.8436 281.336C79.5796 282.403 79.9476 283.784 79.9476 285.48C79.9476 287.176 79.585 288.557 78.8596 289.624C78.1343 290.691 77.0356 291.224 75.5636 291.224ZM75.5636 289.736C76.4916 289.736 77.153 289.347 77.5476 288.568C77.9423 287.779 78.1396 286.749 78.1396 285.48C78.1396 284.211 77.937 283.181 77.5316 282.392C77.137 281.603 76.481 281.208 75.5636 281.208C74.6356 281.208 73.969 281.603 73.5636 282.392C73.169 283.171 72.9716 284.2 72.9716 285.48C72.9716 286.749 73.169 287.779 73.5636 288.568C73.969 289.347 74.6356 289.736 75.5636 289.736Z" fill="#A180FF"/>
<line x1="40" y1="269" x2="575" y2="269" stroke="#C9E68C" stroke-width="2"/>
<path d="M328.8 152.76C328.8 154.947 328 156.773 326.4 158.24C324.8 159.68 322.507 160.453 319.52 160.56V164.04H317.12V160.48C314.213 160.187 311.84 159.213 310 157.56C308.16 155.907 307.173 153.68 307.04 150.88H311.12C311.28 152.64 311.853 154.04 312.84 155.08C313.853 156.093 315.28 156.72 317.12 156.96V147.4L317 147.36C314.333 146.64 312.187 145.72 310.56 144.6C308.96 143.48 308.16 141.853 308.16 139.72C308.16 137.453 308.96 135.64 310.56 134.28C312.187 132.893 314.373 132.147 317.12 132.04V129.2H319.52V132.16C322 132.48 324 133.4 325.52 134.92C327.067 136.413 327.92 138.427 328.08 140.96H324C323.653 138 322.16 136.253 319.52 135.72V144.24C321.707 144.88 323.427 145.493 324.68 146.08C325.933 146.667 326.933 147.493 327.68 148.56C328.427 149.6 328.8 151 328.8 152.76ZM312.28 139.32C312.28 140.413 312.667 141.253 313.44 141.84C314.24 142.427 315.467 142.987 317.12 143.52V135.56C315.627 135.64 314.44 136.013 313.56 136.68C312.707 137.32 312.28 138.2 312.28 139.32ZM319.52 157.08C322.96 156.893 324.68 155.493 324.68 152.88C324.68 151.627 324.28 150.667 323.48 150C322.68 149.307 321.36 148.667 319.52 148.08V157.08ZM341.902 160.56C340.222 160.56 338.728 160.227 337.422 159.56C336.115 158.867 335.062 157.947 334.262 156.8C333.488 155.653 333.008 154.387 332.822 153H337.302C337.462 154.227 337.915 155.2 338.662 155.92C339.435 156.613 340.528 156.96 341.942 156.96C344.288 156.96 345.955 156.067 346.942 154.28C347.928 152.467 348.422 150.173 348.422 147.4V147L348.302 146.96C347.582 148.133 346.595 149.04 345.342 149.68C344.115 150.293 342.728 150.6 341.182 150.6C339.422 150.6 337.848 150.213 336.462 149.44C335.102 148.667 334.035 147.587 333.262 146.2C332.488 144.787 332.102 143.187 332.102 141.4C332.102 139.613 332.502 137.987 333.302 136.52C334.102 135.053 335.248 133.907 336.742 133.08C338.235 132.227 339.982 131.8 341.982 131.8C349.155 131.8 352.742 136.573 352.742 146.12C352.742 150.68 351.795 154.227 349.902 156.76C348.008 159.293 345.342 160.56 341.902 160.56ZM341.822 146.96C343.688 146.96 345.168 146.427 346.262 145.36C347.382 144.267 347.942 142.84 347.942 141.08C347.942 139.373 347.422 138 346.382 136.96C345.368 135.92 343.928 135.4 342.062 135.4C340.302 135.4 338.928 135.92 337.942 136.96C336.982 138 336.502 139.4 336.502 141.16C336.502 142.973 336.982 144.4 337.942 145.44C338.902 146.453 340.195 146.96 341.822 146.96ZM367.645 160.56C363.965 160.56 361.205 159.227 359.365 156.56C357.552 153.893 356.645 150.44 356.645 146.2C356.645 143.453 357.032 141 357.805 138.84C358.605 136.68 359.818 134.973 361.445 133.72C363.098 132.44 365.165 131.8 367.645 131.8C371.298 131.8 374.032 133.147 375.845 135.84C377.685 138.507 378.605 141.96 378.605 146.2C378.605 150.44 377.698 153.893 375.885 156.56C374.072 159.227 371.325 160.56 367.645 160.56ZM367.645 156.84C369.965 156.84 371.618 155.867 372.605 153.92C373.592 151.947 374.085 149.373 374.085 146.2C374.085 143.027 373.578 140.453 372.565 138.48C371.578 136.507 369.938 135.52 367.645 135.52C365.325 135.52 363.658 136.507 362.645 138.48C361.658 140.427 361.165 143 361.165 146.2C361.165 149.373 361.658 151.947 362.645 153.92C363.658 155.867 365.325 156.84 367.645 156.84ZM393.436 160.56C389.756 160.56 386.996 159.227 385.156 156.56C383.342 153.893 382.436 150.44 382.436 146.2C382.436 143.453 382.822 141 383.596 138.84C384.396 136.68 385.609 134.973 387.236 133.72C388.889 132.44 390.956 131.8 393.436 131.8C397.089 131.8 399.822 133.147 401.636 135.84C403.476 138.507 404.396 141.96 404.396 146.2C404.396 150.44 403.489 153.893 401.676 156.56C399.862 159.227 397.116 160.56 393.436 160.56ZM393.436 156.84C395.756 156.84 397.409 155.867 398.396 153.92C399.382 151.947 399.876 149.373 399.876 146.2C399.876 143.027 399.369 140.453 398.356 138.48C397.369 136.507 395.729 135.52 393.436 135.52C391.116 135.52 389.449 136.507 388.436 138.48C387.449 140.427 386.956 143 386.956 146.2C386.956 149.373 387.449 151.947 388.436 153.92C389.449 155.867 391.116 156.84 393.436 156.84ZM428.266 156.4H424.546V148.8H417.186V145.08H424.546V137.48H428.266V145.08H435.626V148.8H428.266V156.4ZM460.362 160H455.922V148.56L445.682 131.4H450.442L458.122 145.08H458.202L465.882 131.4H470.602L460.362 148.56V160ZM478.51 160H474.11V131.4H478.51V160ZM505.228 160H484.588V131.4H504.828V135.2H488.988V143.32H502.868V147.12H488.988V156.2H505.228V160ZM528.634 160H509.754V131.4H514.154V156.2H528.634V160ZM532.459 160V131.4H543.339C547.339 131.4 550.459 132.653 552.699 135.16C554.939 137.64 556.059 141.16 556.059 145.72C556.059 150.28 554.952 153.8 552.739 156.28C550.525 158.76 547.419 160 543.419 160H532.459ZM543.139 156.2C548.712 156.2 551.499 152.707 551.499 145.72C551.499 138.707 548.712 135.2 543.139 135.2H536.859V156.2H543.139Z" fill="#A180FF"/>
<path d="M310.8 309H306.16L316.8 280.4H321.56L332.28 309H327.48L325.12 302.12H313.16L310.8 309ZM319.12 284.48L314.48 298.4H323.88L319.2 284.48H319.12ZM342.538 309.56C339.552 309.56 337.245 308.88 335.618 307.52C334.018 306.16 333.192 304.387 333.138 302.2H337.098C337.178 303.48 337.645 304.507 338.498 305.28C339.378 306.027 340.712 306.4 342.498 306.4C344.072 306.4 345.192 306.12 345.858 305.56C346.525 304.973 346.858 304.253 346.858 303.4C346.858 302.6 346.618 301.987 346.138 301.56C345.658 301.133 345.138 300.853 344.578 300.72C344.045 300.56 343.018 300.32 341.498 300C339.925 299.627 338.618 299.24 337.578 298.84C336.538 298.44 335.658 297.84 334.938 297.04C334.218 296.24 333.858 295.187 333.858 293.88C333.858 292.093 334.538 290.667 335.898 289.6C337.285 288.533 339.192 288 341.618 288C344.285 288 346.338 288.613 347.778 289.84C349.218 291.067 350.018 292.627 350.178 294.52H346.218C346.032 293.533 345.605 292.733 344.938 292.12C344.298 291.48 343.218 291.16 341.698 291.16C340.418 291.16 339.472 291.387 338.858 291.84C338.245 292.293 337.938 292.92 337.938 293.72C337.938 294.307 338.112 294.773 338.458 295.12C338.805 295.467 339.245 295.733 339.778 295.92C340.312 296.08 341.098 296.267 342.138 296.48C342.352 296.507 342.672 296.573 343.098 296.68C344.725 297.053 346.072 297.453 347.138 297.88C348.205 298.307 349.098 298.947 349.818 299.8C350.565 300.653 350.938 301.787 350.938 303.2C350.938 305.2 350.205 306.76 348.738 307.88C347.272 309 345.205 309.56 342.538 309.56ZM362.47 309.56C359.483 309.56 357.176 308.88 355.55 307.52C353.95 306.16 353.123 304.387 353.07 302.2H357.03C357.11 303.48 357.576 304.507 358.43 305.28C359.31 306.027 360.643 306.4 362.43 306.4C364.003 306.4 365.123 306.12 365.79 305.56C366.456 304.973 366.79 304.253 366.79 303.4C366.79 302.6 366.55 301.987 366.07 301.56C365.59 301.133 365.07 300.853 364.51 300.72C363.976 300.56 362.95 300.32 361.43 300C359.856 299.627 358.55 299.24 357.51 298.84C356.47 298.44 355.59 297.84 354.87 297.04C354.15 296.24 353.79 295.187 353.79 293.88C353.79 292.093 354.47 290.667 355.83 289.6C357.216 288.533 359.123 288 361.55 288C364.216 288 366.27 288.613 367.71 289.84C369.15 291.067 369.95 292.627 370.11 294.52H366.15C365.963 293.533 365.536 292.733 364.87 292.12C364.23 291.48 363.15 291.16 361.63 291.16C360.35 291.16 359.403 291.387 358.79 291.84C358.176 292.293 357.87 292.92 357.87 293.72C357.87 294.307 358.043 294.773 358.39 295.12C358.736 295.467 359.176 295.733 359.71 295.92C360.243 296.08 361.03 296.267 362.07 296.48C362.283 296.507 362.603 296.573 363.03 296.68C364.656 297.053 366.003 297.453 367.07 297.88C368.136 298.307 369.03 298.947 369.75 299.8C370.496 300.653 370.87 301.787 370.87 303.2C370.87 305.2 370.136 306.76 368.67 307.88C367.203 309 365.136 309.56 362.47 309.56ZM393.081 298.36C393.081 299.133 393.068 299.627 393.041 299.84H377.361C377.414 301.68 377.961 303.24 379.001 304.52C380.068 305.773 381.561 306.4 383.481 306.4C385.081 306.4 386.308 306.013 387.161 305.24C388.041 304.467 388.601 303.627 388.841 302.72H392.841C392.254 304.8 391.174 306.467 389.601 307.72C388.028 308.973 385.961 309.6 383.401 309.6C381.294 309.6 379.481 309.133 377.961 308.2C376.441 307.267 375.281 305.987 374.481 304.36C373.708 302.733 373.321 300.867 373.321 298.76C373.321 296.627 373.721 294.747 374.521 293.12C375.348 291.493 376.521 290.227 378.041 289.32C379.561 288.413 381.348 287.96 383.401 287.96C386.468 287.96 388.841 288.893 390.521 290.76C392.228 292.627 393.081 295.16 393.081 298.36ZM389.001 296.76C389.001 295.133 388.468 293.8 387.401 292.76C386.361 291.693 384.988 291.16 383.281 291.16C381.628 291.16 380.254 291.68 379.161 292.72C378.068 293.733 377.468 295.08 377.361 296.76H389.001ZM404 306C404.506 306 405.066 305.947 405.68 305.84V309C404.88 309.16 404.053 309.24 403.2 309.24C401.386 309.24 400.026 308.8 399.12 307.92C398.24 307.04 397.8 305.48 397.8 303.24V291.84H394.84V288.6H397.8V282.04H401.72V288.6H405.64V291.84H401.72V303.36C401.72 304.4 401.88 305.107 402.2 305.48C402.546 305.827 403.146 306 404 306ZM428.861 305.4H425.141V297.8H417.781V294.08H425.141V286.48H428.861V294.08H436.221V297.8H428.861V305.4ZM460.957 309H456.517V297.56L446.277 280.4H451.037L458.717 294.08H458.797L466.477 280.4H471.197L460.957 297.56V309ZM479.106 309H474.706V280.4H479.106V309ZM505.824 309H485.184V280.4H505.424V284.2H489.584V292.32H503.464V296.12H489.584V305.2H505.824V309ZM529.229 309H510.349V280.4H514.749V305.2H529.229V309ZM533.054 309V280.4H543.934C547.934 280.4 551.054 281.653 553.294 284.16C555.534 286.64 556.654 290.16 556.654 294.72C556.654 299.28 555.547 302.8 553.334 305.28C551.121 307.76 548.014 309 544.014 309H533.054ZM543.734 305.2C549.307 305.2 552.094 301.707 552.094 294.72C552.094 287.707 549.307 284.2 543.734 284.2H537.454V305.2H543.734Z" fill="#A180FF"/>
<defs>
<filter id="filter0_f_906_23662" x="-193.523" y="-574.421" width="1072.52" height="1360.42" filterUnits="userSpaceOnUse" color-interpolation-filters="sRGB">
<feFlood flood-opacity="0" result="BackgroundImageFix"/>
<feBlend mode="normal" in="SourceGraphic" in2="BackgroundImageFix" result="shape"/>
<feGaussianBlur stdDeviation="125" result="effect1_foregroundBlur_906_23662"/>
</filter>
</defs>
</svg>
