<svg width="121" height="18" viewBox="0 0 121 18" fill="none" xmlns="http://www.w3.org/2000/svg">
<g id="Group 1976">
<g id="Group 1975">
<path id="TYMIO" d="M39.9453 4.51628C39.9453 4.35703 39.8162 4.22794 39.657 4.22794H34.9177C34.7585 4.22794 34.6294 4.09884 34.6294 3.9396V0.634411C34.6294 0.475164 34.7585 0.346069 34.9177 0.346069H49.8438C50.003 0.346069 50.1321 0.475164 50.1321 0.634411V3.9396C50.1321 4.09884 50.003 4.22794 49.8438 4.22794H45.1293C44.97 4.22794 44.8409 4.35703 44.8409 4.51628V17.3654C44.8409 17.5247 44.7118 17.6538 44.5526 17.6538H40.2337C40.0744 17.6538 39.9453 17.5247 39.9453 17.3654V4.51628Z" fill="#A89ADF"/>
<path id="TYMIO_2" d="M110.971 18C109.141 18 107.493 17.6126 106.026 16.8379C104.576 16.0632 103.43 14.9918 102.589 13.6236C101.765 12.2555 101.353 10.7143 101.353 9C101.353 7.28571 101.765 5.74451 102.589 4.37637C103.43 3.00824 104.576 1.93681 106.026 1.16209C107.493 0.387362 109.141 0 110.971 0C112.801 0 114.441 0.387362 115.891 1.16209C117.359 1.93681 118.504 3.00824 119.328 4.37637C120.169 5.74451 120.589 7.28571 120.589 9C120.589 10.7143 120.169 12.2555 119.328 13.6236C118.504 14.9918 117.359 16.0632 115.891 16.8379C114.441 17.6126 112.801 18 110.971 18ZM110.971 13.9451C111.845 13.9451 112.636 13.739 113.345 13.3269C114.054 12.9148 114.614 12.3379 115.026 11.5962C115.438 10.8379 115.644 9.97253 115.644 9C115.644 8.02747 115.438 7.17033 115.026 6.42857C114.614 5.67033 114.054 5.08517 113.345 4.67308C112.636 4.26099 111.845 4.05495 110.971 4.05495C110.098 4.05495 109.306 4.26099 108.598 4.67308C107.889 5.08517 107.328 5.67033 106.916 6.42857C106.504 7.17033 106.298 8.02747 106.298 9C106.298 9.97253 106.504 10.8379 106.916 11.5962C107.328 12.3379 107.889 12.9148 108.598 13.3269C109.306 13.739 110.098 13.9451 110.971 13.9451Z" fill="#A89ADF"/>
<path id="TYMIO_3" d="M93.5337 0.634411C93.5337 0.475164 93.6628 0.346069 93.822 0.346069H98.141C98.3002 0.346069 98.4293 0.475164 98.4293 0.634411V17.3654C98.4293 17.5247 98.3002 17.6538 98.141 17.6538H93.822C93.6628 17.6538 93.5337 17.5247 93.5337 17.3654V0.634411Z" fill="#A89ADF"/>
<path id="TYMIO_4" d="M86.1109 17.6538C85.9523 17.6538 85.8234 17.5256 85.8226 17.367L85.7803 9.51671C85.7787 9.22465 85.3938 9.11975 85.2442 9.37064L81.408 15.807C81.356 15.8943 81.2619 15.9477 81.1603 15.9477H79.3098C79.2094 15.9477 79.1163 15.8956 79.0639 15.8101L75.2566 9.59932C75.1046 9.35122 74.7225 9.45901 74.7225 9.75002V17.3654C74.7225 17.5247 74.5934 17.6538 74.4341 17.6538H70.4861C70.3268 17.6538 70.1978 17.5247 70.1978 17.3654V0.634411C70.1978 0.475164 70.3268 0.346069 70.4861 0.346069H74.066C74.1666 0.346069 74.2599 0.398514 74.3122 0.48445L80.0611 9.92562C80.1741 10.1113 80.4442 10.1098 80.5552 9.92292L86.1606 0.487144C86.2126 0.39968 86.3068 0.346069 86.4085 0.346069H89.9872C90.1461 0.346069 90.275 0.474663 90.2755 0.633587L90.3233 17.3646C90.3238 17.5242 90.1945 17.6538 90.035 17.6538H86.1109Z" fill="#A89ADF"/>
<path id="TYMIO_5" d="M62.6306 11.3868C62.6039 11.4315 62.5899 11.4825 62.5899 11.5346V17.3727C62.5899 17.532 62.4608 17.6611 62.3015 17.6611H57.9826C57.8234 17.6611 57.6943 17.532 57.6943 17.3727V11.4606C57.6943 11.4084 57.6801 11.3572 57.6533 11.3125L51.3539 0.78984C51.2388 0.597648 51.3773 0.353394 51.6013 0.353394H56.0965C56.198 0.353394 56.2921 0.406761 56.3441 0.493909L60.117 6.81242C60.2289 6.99978 60.5003 6.99978 60.6122 6.81242L64.3851 0.493909C64.4371 0.406762 64.5311 0.353394 64.6326 0.353394H68.7083C68.9322 0.353394 69.0706 0.59732 68.9559 0.789517L62.6306 11.3868Z" fill="#A89ADF"/>
</g>
<g id="Group 1974">
<path id="Rectangle 1854" d="M9.22021 1.0745C9.22021 0.676176 9.54312 0.353271 9.94144 0.353271H16.5767C16.9751 0.353271 17.298 0.676176 17.298 1.0745V7.70979C17.298 8.10811 16.9751 8.43101 16.5767 8.43101H9.94144C9.54312 8.43101 9.22021 8.10811 9.22021 7.70979V1.0745Z" fill="#A89ADF"/>
<path id="Rectangle 1862" d="M9.22021 10.2937C9.22021 9.89541 9.54312 9.57251 9.94144 9.57251H16.5767C16.9751 9.57251 17.298 9.89541 17.298 10.2937V16.929C17.298 17.3273 16.9751 17.6503 16.5767 17.6503H9.94144C9.54312 17.6503 9.22021 17.3273 9.22021 16.929V10.2937Z" fill="#A89ADF"/>
<path id="Rectangle 1861" d="M0 1.07462C0 0.676298 0.322904 0.353394 0.721227 0.353394H7.35651C7.75484 0.353394 8.07774 0.676298 8.07774 1.07462V7.70991C8.07774 8.10823 7.75484 8.43113 7.35651 8.43113H0.721227C0.322904 8.43113 0 8.10823 0 7.70991V1.07462Z" fill="#A89ADF"/>
<path id="Rectangle 1856" d="M18.4399 1.08561C18.4399 0.687284 18.7628 0.36438 19.1612 0.36438H25.7965C26.1948 0.36438 26.5177 0.687284 26.5177 1.08561V7.72089C26.5177 8.11922 26.1948 8.44212 25.7965 8.44212H19.1612C18.7628 8.44212 18.4399 8.11922 18.4399 7.72089V1.08561Z" fill="#A89ADF"/>
</g>
</g>
</svg>
