<svg width="612" height="374" viewBox="0 0 612 374" fill="none" xmlns="http://www.w3.org/2000/svg">
<mask id="mask0_906_23661" style="mask-type:alpha" maskUnits="userSpaceOnUse" x="0" y="0" width="612" height="374">
<rect width="612" height="374" rx="10" fill="#D9D9D9"/>
</mask>
<g mask="url(#mask0_906_23661)">
<mask id="mask1_906_23661" style="mask-type:luminance" maskUnits="userSpaceOnUse" x="-123" y="-211" width="766" height="844">
<path d="M-123 -211L-123 632.174L642.95 632.174L642.95 -211L-123 -211Z" fill="white"/>
</mask>
<g mask="url(#mask1_906_23661)">
<g filter="url(#filter0_f_906_23661)">
<path d="M-17 -162L-17 346.003L439.219 346.003L439.219 -162L-17 -162Z" fill="#DF39EA"/>
<path d="M-16.0674 205.905L-16.0674 634.026L555.523 634.026L555.523 205.905L-16.0674 205.905Z" fill="#A180FF"/>
<path d="M72.9985 73.4682L72.9985 698.421L485.654 698.421L485.654 73.4682L72.9985 73.4682Z" fill="#1C102F"/>
</g>
</g>
</g>
<line x1="107.5" y1="45" x2="107.5" y2="323" stroke="#A180FF"/>
<line x1="288.5" y1="45" x2="288.5" y2="323" stroke="#A180FF"/>
<line x1="575" y1="323.5" x2="108" y2="323.5" stroke="#A180FF"/>
<path d="M103.336 212.653L111.403 213.914L112.664 205.847L104.597 204.586L103.336 212.653ZM294.273 211L288.5 205.226L282.727 211L288.5 216.774L294.273 211ZM238.596 209.556L238.154 210.453L238.596 209.556ZM168.027 174.748L167.584 175.645L168.027 174.748ZM108.589 210.058L154.172 176.802L152.993 175.186L107.411 208.442L108.589 210.058ZM167.584 175.645L238.154 210.453L239.038 208.659L168.469 173.851L167.584 175.645ZM244.789 212H288.5V210H244.789V212ZM238.154 210.453C240.217 211.471 242.488 212 244.789 212V210C242.795 210 240.827 209.541 239.038 208.659L238.154 210.453ZM154.172 176.802C158.079 173.951 163.246 173.505 167.584 175.645L168.469 173.851C163.464 171.383 157.501 171.897 152.993 175.186L154.172 176.802Z" fill="#C9E68C"/>
<path d="M41.136 56V44.56H45.904C47.0453 44.56 47.952 44.8427 48.624 45.408C49.3067 45.9627 49.648 46.816 49.648 47.968C49.648 49.12 49.3067 49.9733 48.624 50.528C47.952 51.0827 47.0453 51.36 45.904 51.36H42.896V56H41.136ZM45.824 49.84C46.496 49.84 46.9973 49.6907 47.328 49.392C47.6587 49.0827 47.824 48.608 47.824 47.968C47.824 47.328 47.6587 46.8533 47.328 46.544C46.9973 46.2347 46.496 46.08 45.824 46.08H42.896V49.84H45.824ZM51.4404 56V44.56H56.2084C57.467 44.56 58.427 44.848 59.0884 45.424C59.7604 45.9893 60.0964 46.8 60.0964 47.856C60.0964 48.5707 59.899 49.1787 59.5044 49.68C59.1097 50.1813 58.5924 50.5067 57.9524 50.656V50.688C58.507 50.7947 58.923 51.056 59.2004 51.472C59.4884 51.888 59.675 52.3467 59.7604 52.848C59.8564 53.3493 59.9257 53.936 59.9684 54.608C60.0004 55.0453 60.0324 55.36 60.0644 55.552C60.0964 55.744 60.1604 55.856 60.2564 55.888V56H58.3684C58.2937 55.936 58.2457 55.824 58.2244 55.664C58.2137 55.4933 58.203 55.216 58.1924 54.832C58.1817 54.192 58.1337 53.648 58.0484 53.2C57.9737 52.752 57.787 52.3627 57.4884 52.032C57.2004 51.6907 56.7524 51.52 56.1444 51.52H53.2004V56H51.4404ZM55.8244 50C56.635 50 57.2537 49.8293 57.6804 49.488C58.107 49.136 58.3204 48.6347 58.3204 47.984C58.3204 47.3547 58.123 46.88 57.7284 46.56C57.3444 46.24 56.7204 46.08 55.8564 46.08H53.2004V50H55.8244ZM64.0204 56H62.2604V44.56H64.0204V56ZM71.3956 56.224C70.329 56.224 69.3903 55.9733 68.5796 55.472C67.7796 54.96 67.1556 54.256 66.7076 53.36C66.2703 52.4533 66.0516 51.4293 66.0516 50.288C66.0516 49.1467 66.2703 48.1227 66.7076 47.216C67.1556 46.3093 67.785 45.6053 68.5956 45.104C69.4063 44.592 70.345 44.336 71.4116 44.336C72.3396 44.336 73.1556 44.5173 73.8596 44.88C74.5743 45.2427 75.1396 45.7333 75.5556 46.352C75.9716 46.9707 76.2276 47.6693 76.3236 48.448H74.4836C74.3556 47.7333 74.0516 47.1253 73.5716 46.624C73.0916 46.112 72.361 45.856 71.3796 45.856C70.1956 45.856 69.3156 46.2773 68.7396 47.12C68.1743 47.9627 67.8916 49.0133 67.8916 50.272C67.8916 51.5413 68.1743 52.5973 68.7396 53.44C69.3156 54.2827 70.1956 54.704 71.3796 54.704C72.393 54.704 73.145 54.432 73.6356 53.888C74.137 53.3333 74.4196 52.6507 74.4836 51.84H76.3236C76.2383 52.6933 75.9876 53.4507 75.5716 54.112C75.1556 54.7733 74.5903 55.2907 73.8756 55.664C73.161 56.0373 72.3343 56.224 71.3956 56.224ZM86.4845 56H78.2285V44.56H86.3245V46.08H79.9885V49.328H85.5405V50.848H79.9885V54.48H86.4845V56Z" fill="#EEEAF7" fill-opacity="0.5"/>
<path d="M313.984 56H312.208V51.424L308.112 44.56H310.016L313.088 50.032H313.12L316.192 44.56H318.08L313.984 51.424V56ZM323.84 56.224C322.72 56.224 321.733 55.968 320.88 55.456C320.037 54.944 319.381 54.24 318.912 53.344C318.453 52.4373 318.224 51.4133 318.224 50.272C318.224 49.1307 318.453 48.112 318.912 47.216C319.381 46.3093 320.037 45.6053 320.88 45.104C321.733 44.592 322.72 44.336 323.84 44.336C324.96 44.336 325.941 44.592 326.784 45.104C327.637 45.6053 328.293 46.3093 328.752 47.216C329.221 48.112 329.456 49.1307 329.456 50.272C329.456 51.4133 329.221 52.4373 328.752 53.344C328.293 54.24 327.637 54.944 326.784 55.456C325.941 55.968 324.96 56.224 323.84 56.224ZM323.84 54.704C325.109 54.704 326.053 54.288 326.672 53.456C327.301 52.6133 327.616 51.552 327.616 50.272C327.616 48.992 327.301 47.936 326.672 47.104C326.053 46.272 325.109 45.856 323.84 45.856C322.571 45.856 321.621 46.272 320.992 47.104C320.373 47.936 320.064 48.992 320.064 50.272C320.064 51.552 320.373 52.6133 320.992 53.456C321.621 54.288 322.571 54.704 323.84 54.704ZM335.879 56.224C334.364 56.224 333.239 55.8613 332.503 55.136C331.777 54.4107 331.415 53.4027 331.415 52.112V44.56H333.175V52.112C333.175 52.9973 333.399 53.6533 333.847 54.08C334.295 54.496 334.972 54.704 335.879 54.704C336.796 54.704 337.473 54.496 337.911 54.08C338.359 53.6533 338.583 52.9973 338.583 52.112V44.56H340.359V52.112C340.359 53.4027 339.991 54.4107 339.255 55.136C338.529 55.8613 337.404 56.224 335.879 56.224ZM351.149 56.224C350.072 56.224 349.144 55.9733 348.365 55.472C347.597 54.96 347.01 54.256 346.605 53.36C346.2 52.464 345.997 51.4347 345.997 50.272C345.997 49.1307 346.216 48.112 346.653 47.216C347.101 46.3093 347.73 45.6053 348.541 45.104C349.352 44.592 350.29 44.336 351.357 44.336C352.776 44.336 353.896 44.6773 354.717 45.36C355.549 46.0427 356.061 46.9547 356.253 48.096H354.413C354.264 47.3707 353.922 46.816 353.389 46.432C352.866 46.048 352.184 45.856 351.341 45.856C350.541 45.856 349.88 46.0693 349.357 46.496C348.834 46.912 348.45 47.456 348.205 48.128C347.96 48.7893 347.837 49.504 347.837 50.272C347.837 51.5307 348.098 52.5867 348.621 53.44C349.144 54.2827 350.018 54.704 351.245 54.704C351.874 54.704 352.445 54.5707 352.957 54.304C353.48 54.0267 353.89 53.6427 354.189 53.152C354.498 52.6613 354.653 52.1067 354.653 51.488H351.277V50.016H356.445V56H355.229L354.797 54.416H354.765C354.349 55.024 353.853 55.4773 353.277 55.776C352.701 56.0747 351.992 56.224 351.149 56.224ZM366.914 56H358.658V44.56H366.754V46.08H360.418V49.328H365.97V50.848H360.418V54.48H366.914V56ZM373.257 56H371.481V46.08H367.785V44.56H376.953V46.08H373.257V56Z" fill="#EEEAF7" fill-opacity="0.5"/>
<path d="M48.688 108H41.136V96.56H42.896V106.48H48.688V108ZM52.1379 108H50.3779V96.56H52.1379V108ZM56.4571 108H54.7291V96.56H57.0491L60.3451 105.552H60.3771L63.6891 96.56H66.0091V108H64.2811V99.12H64.2491L61.0971 108H59.6411L56.4891 99.12H56.4571V108ZM70.356 108H68.596V96.56H70.356V108ZM77.5233 108H75.7473V98.08H72.0513V96.56H81.2193V98.08H77.5233V108ZM91.1745 108.224C90.0545 108.224 89.0678 107.968 88.2145 107.456C87.3718 106.944 86.7158 106.24 86.2465 105.344C85.7878 104.437 85.5585 103.413 85.5585 102.272C85.5585 101.131 85.7878 100.112 86.2465 99.216C86.7158 98.3093 87.3718 97.6053 88.2145 97.104C89.0678 96.592 90.0545 96.336 91.1745 96.336C92.2945 96.336 93.2758 96.592 94.1185 97.104C94.9718 97.6053 95.6278 98.3093 96.0865 99.216C96.5558 100.112 96.7905 101.131 96.7905 102.272C96.7905 103.413 96.5558 104.437 96.0865 105.344C95.6278 106.24 94.9718 106.944 94.1185 107.456C93.2758 107.968 92.2945 108.224 91.1745 108.224ZM91.1745 106.704C92.4438 106.704 93.3878 106.288 94.0065 105.456C94.6358 104.613 94.9505 103.552 94.9505 102.272C94.9505 100.992 94.6358 99.936 94.0065 99.104C93.3878 98.272 92.4438 97.856 91.1745 97.856C89.9052 97.856 88.9558 98.272 88.3265 99.104C87.7078 99.936 87.3985 100.992 87.3985 102.272C87.3985 103.552 87.7078 104.613 88.3265 105.456C88.9558 106.288 89.9052 106.704 91.1745 106.704ZM98.8291 108V96.56H103.597C104.856 96.56 105.816 96.848 106.477 97.424C107.149 97.9893 107.485 98.8 107.485 99.856C107.485 100.571 107.288 101.179 106.893 101.68C106.498 102.181 105.981 102.507 105.341 102.656V102.688C105.896 102.795 106.312 103.056 106.589 103.472C106.877 103.888 107.064 104.347 107.149 104.848C107.245 105.349 107.314 105.936 107.357 106.608C107.389 107.045 107.421 107.36 107.453 107.552C107.485 107.744 107.549 107.856 107.645 107.888V108H105.757C105.682 107.936 105.634 107.824 105.613 107.664C105.602 107.493 105.592 107.216 105.581 106.832C105.57 106.192 105.522 105.648 105.437 105.2C105.362 104.752 105.176 104.363 104.877 104.032C104.589 103.691 104.141 103.52 103.533 103.52H100.589V108H98.8291ZM103.213 102C104.024 102 104.642 101.829 105.069 101.488C105.496 101.136 105.709 100.635 105.709 99.984C105.709 99.3547 105.512 98.88 105.117 98.56C104.733 98.24 104.109 98.08 103.245 98.08H100.589V102H103.213ZM109.649 108V96.56H114.001C115.601 96.56 116.849 97.0613 117.745 98.064C118.641 99.056 119.089 100.464 119.089 102.288C119.089 104.112 118.646 105.52 117.761 106.512C116.876 107.504 115.633 108 114.033 108H109.649ZM113.921 106.48C116.15 106.48 117.265 105.083 117.265 102.288C117.265 99.4827 116.15 98.08 113.921 98.08H111.409V106.48H113.921ZM129.413 108H121.157V96.56H129.253V98.08H122.917V101.328H128.469V102.848H122.917V106.48H129.413V108ZM131.383 108V96.56H136.151C137.41 96.56 138.37 96.848 139.031 97.424C139.703 97.9893 140.039 98.8 140.039 99.856C140.039 100.571 139.842 101.179 139.447 101.68C139.052 102.181 138.535 102.507 137.895 102.656V102.688C138.45 102.795 138.866 103.056 139.143 103.472C139.431 103.888 139.618 104.347 139.703 104.848C139.799 105.349 139.868 105.936 139.911 106.608C139.943 107.045 139.975 107.36 140.007 107.552C140.039 107.744 140.103 107.856 140.199 107.888V108H138.311C138.236 107.936 138.188 107.824 138.167 107.664C138.156 107.493 138.146 107.216 138.135 106.832C138.124 106.192 138.076 105.648 137.991 105.2C137.916 104.752 137.73 104.363 137.431 104.032C137.143 103.691 136.695 103.52 136.087 103.52H133.143V108H131.383ZM135.767 102C136.578 102 137.196 101.829 137.623 101.488C138.05 101.136 138.263 100.635 138.263 99.984C138.263 99.3547 138.066 98.88 137.671 98.56C137.287 98.24 136.663 98.08 135.799 98.08H133.143V102H135.767Z" fill="#C9E68C"/>
<path d="M541.712 344H539.936V334.08H536.24V332.56H545.408V334.08H541.712V344ZM548.857 344H547.097V332.56H548.857V344ZM553.176 344H551.448V332.56H553.768L557.064 341.552H557.096L560.408 332.56H562.728V344H561V335.12H560.968L557.816 344H556.36L553.208 335.12H553.176V344ZM573.571 344H565.315V332.56H573.411V334.08H567.075V337.328H572.627V338.848H567.075V342.48H573.571V344Z" fill="#EEEAF7" fill-opacity="0.5"/>
<path d="M104.48 213.576L112.576 212.52L111.52 204.424L103.424 205.48L104.48 213.576ZM292.971 90.8094L284.809 91.0286L285.029 99.1906L293.191 98.9714L292.971 90.8094ZM233.638 145.464L233.535 146.459L233.638 145.464ZM245.246 141.169L245.971 141.857L245.246 141.169ZM157.784 144.279L156.992 143.669L157.784 144.279ZM170.327 138.89L170.224 139.884L170.327 138.89ZM108.793 209.61L158.577 144.889L156.992 143.669L107.207 208.39L108.793 209.61ZM170.224 139.884L233.535 146.459L233.741 144.469L170.43 137.895L170.224 139.884ZM245.971 141.857L289.726 95.6879L288.274 94.3121L244.52 140.481L245.971 141.857ZM233.535 146.459C238.17 146.94 242.766 145.239 245.971 141.857L244.52 140.481C241.742 143.413 237.759 144.886 233.741 144.469L233.535 146.459ZM158.577 144.889C161.328 141.312 165.736 139.418 170.224 139.884L170.43 137.895C165.252 137.357 160.166 139.543 156.992 143.669L158.577 144.889Z" fill="#C9E68C"/>
<path d="M49.12 136.104C49.12 136.979 48.8 137.709 48.16 138.296C47.52 138.872 46.6027 139.181 45.408 139.224V140.616H44.448V139.192C43.2853 139.075 42.336 138.685 41.6 138.024C40.864 137.363 40.4693 136.472 40.416 135.352H42.048C42.112 136.056 42.3413 136.616 42.736 137.032C43.1413 137.437 43.712 137.688 44.448 137.784V133.96L44.4 133.944C43.3333 133.656 42.4747 133.288 41.824 132.84C41.184 132.392 40.864 131.741 40.864 130.888C40.864 129.981 41.184 129.256 41.824 128.712C42.4747 128.157 43.3493 127.859 44.448 127.816V126.68H45.408V127.864C46.4 127.992 47.2 128.36 47.808 128.968C48.4267 129.565 48.768 130.371 48.832 131.384H47.2C47.0613 130.2 46.464 129.501 45.408 129.288V132.696C46.2827 132.952 46.9707 133.197 47.472 133.432C47.9733 133.667 48.3733 133.997 48.672 134.424C48.9707 134.84 49.12 135.4 49.12 136.104ZM42.512 130.728C42.512 131.165 42.6667 131.501 42.976 131.736C43.296 131.971 43.7867 132.195 44.448 132.408V129.224C43.8507 129.256 43.376 129.405 43.024 129.672C42.6827 129.928 42.512 130.28 42.512 130.728ZM45.408 137.832C46.784 137.757 47.472 137.197 47.472 136.152C47.472 135.651 47.312 135.267 46.992 135C46.672 134.723 46.144 134.467 45.408 134.232V137.832ZM52.4886 130.792C52.2646 130.995 51.9606 131.133 51.5766 131.208C51.2033 131.283 50.734 131.32 50.1686 131.32V129.912C50.8086 129.901 51.3153 129.827 51.6886 129.688C52.062 129.539 52.334 129.325 52.5046 129.048C52.6753 128.771 52.7873 128.403 52.8406 127.944H54.2166V139H52.4886V130.792ZM60.8218 139.224C59.3498 139.224 58.2458 138.691 57.5098 137.624C56.7844 136.557 56.4218 135.176 56.4218 133.48C56.4218 132.381 56.5764 131.4 56.8858 130.536C57.2058 129.672 57.6911 128.989 58.3418 128.488C59.0031 127.976 59.8298 127.72 60.8218 127.72C62.2831 127.72 63.3764 128.259 64.1018 129.336C64.8378 130.403 65.2058 131.784 65.2058 133.48C65.2058 135.176 64.8431 136.557 64.1178 137.624C63.3924 138.691 62.2938 139.224 60.8218 139.224ZM60.8218 137.736C61.7498 137.736 62.4111 137.347 62.8058 136.568C63.2004 135.779 63.3978 134.749 63.3978 133.48C63.3978 132.211 63.1951 131.181 62.7898 130.392C62.3951 129.603 61.7391 129.208 60.8218 129.208C59.8938 129.208 59.2271 129.603 58.8218 130.392C58.4271 131.171 58.2298 132.2 58.2298 133.48C58.2298 134.749 58.4271 135.779 58.8218 136.568C59.2271 137.347 59.8938 137.736 60.8218 137.736ZM71.298 139.224C69.826 139.224 68.722 138.691 67.986 137.624C67.2607 136.557 66.898 135.176 66.898 133.48C66.898 132.381 67.0527 131.4 67.362 130.536C67.682 129.672 68.1673 128.989 68.818 128.488C69.4793 127.976 70.306 127.72 71.298 127.72C72.7593 127.72 73.8527 128.259 74.578 129.336C75.314 130.403 75.682 131.784 75.682 133.48C75.682 135.176 75.3193 136.557 74.594 137.624C73.8687 138.691 72.77 139.224 71.298 139.224ZM71.298 137.736C72.226 137.736 72.8873 137.347 73.282 136.568C73.6767 135.779 73.874 134.749 73.874 133.48C73.874 132.211 73.6713 131.181 73.266 130.392C72.8713 129.603 72.2153 129.208 71.298 129.208C70.37 129.208 69.7033 129.603 69.298 130.392C68.9033 131.171 68.706 132.2 68.706 133.48C68.706 134.749 68.9033 135.779 69.298 136.568C69.7033 137.347 70.37 137.736 71.298 137.736ZM81.7742 139.224C80.3022 139.224 79.1982 138.691 78.4622 137.624C77.7369 136.557 77.3742 135.176 77.3742 133.48C77.3742 132.381 77.5289 131.4 77.8382 130.536C78.1582 129.672 78.6436 128.989 79.2942 128.488C79.9556 127.976 80.7822 127.72 81.7742 127.72C83.2356 127.72 84.3289 128.259 85.0542 129.336C85.7902 130.403 86.1582 131.784 86.1582 133.48C86.1582 135.176 85.7956 136.557 85.0702 137.624C84.3449 138.691 83.2462 139.224 81.7742 139.224ZM81.7742 137.736C82.7022 137.736 83.3636 137.347 83.7582 136.568C84.1529 135.779 84.3502 134.749 84.3502 133.48C84.3502 132.211 84.1476 131.181 83.7422 130.392C83.3476 129.603 82.6916 129.208 81.7742 129.208C80.8462 129.208 80.1796 129.603 79.7742 130.392C79.3796 131.171 79.1822 132.2 79.1822 133.48C79.1822 134.749 79.3796 135.779 79.7742 136.568C80.1796 137.347 80.8462 137.736 81.7742 137.736Z" fill="#A180FF"/>
<path d="M49.12 212.104C49.12 212.979 48.8 213.709 48.16 214.296C47.52 214.872 46.6027 215.181 45.408 215.224V216.616H44.448V215.192C43.2853 215.075 42.336 214.685 41.6 214.024C40.864 213.363 40.4693 212.472 40.416 211.352H42.048C42.112 212.056 42.3413 212.616 42.736 213.032C43.1413 213.437 43.712 213.688 44.448 213.784V209.96L44.4 209.944C43.3333 209.656 42.4747 209.288 41.824 208.84C41.184 208.392 40.864 207.741 40.864 206.888C40.864 205.981 41.184 205.256 41.824 204.712C42.4747 204.157 43.3493 203.859 44.448 203.816V202.68H45.408V203.864C46.4 203.992 47.2 204.36 47.808 204.968C48.4267 205.565 48.768 206.371 48.832 207.384H47.2C47.0613 206.2 46.464 205.501 45.408 205.288V208.696C46.2827 208.952 46.9707 209.197 47.472 209.432C47.9733 209.667 48.3733 209.997 48.672 210.424C48.9707 210.84 49.12 211.4 49.12 212.104ZM42.512 206.728C42.512 207.165 42.6667 207.501 42.976 207.736C43.296 207.971 43.7867 208.195 44.448 208.408V205.224C43.8507 205.256 43.376 205.405 43.024 205.672C42.6827 205.928 42.512 206.28 42.512 206.728ZM45.408 213.832C46.784 213.757 47.472 213.197 47.472 212.152C47.472 211.651 47.312 211.267 46.992 211C46.672 210.723 46.144 210.467 45.408 210.232V213.832ZM54.5206 215.224C53.8486 215.224 53.2513 215.091 52.7286 214.824C52.206 214.547 51.7846 214.179 51.4646 213.72C51.1553 213.261 50.9633 212.755 50.8886 212.2H52.6806C52.7446 212.691 52.926 213.08 53.2246 213.368C53.534 213.645 53.9713 213.784 54.5366 213.784C55.4753 213.784 56.142 213.427 56.5366 212.712C56.9313 211.987 57.1286 211.069 57.1286 209.96V209.8L57.0806 209.784C56.7926 210.253 56.398 210.616 55.8966 210.872C55.406 211.117 54.8513 211.24 54.2326 211.24C53.5286 211.24 52.8993 211.085 52.3446 210.776C51.8006 210.467 51.374 210.035 51.0646 209.48C50.7553 208.915 50.6006 208.275 50.6006 207.56C50.6006 206.845 50.7606 206.195 51.0806 205.608C51.4006 205.021 51.8593 204.563 52.4566 204.232C53.054 203.891 53.7526 203.72 54.5526 203.72C57.422 203.72 58.8566 205.629 58.8566 209.448C58.8566 211.272 58.478 212.691 57.7206 213.704C56.9633 214.717 55.8966 215.224 54.5206 215.224ZM54.4886 209.784C55.2353 209.784 55.8273 209.571 56.2646 209.144C56.7126 208.707 56.9366 208.136 56.9366 207.432C56.9366 206.749 56.7286 206.2 56.3126 205.784C55.9073 205.368 55.3313 205.16 54.5846 205.16C53.8806 205.16 53.3313 205.368 52.9366 205.784C52.5526 206.2 52.3606 206.76 52.3606 207.464C52.3606 208.189 52.5526 208.76 52.9366 209.176C53.3206 209.581 53.838 209.784 54.4886 209.784ZM64.978 215.224C63.506 215.224 62.402 214.691 61.666 213.624C60.9407 212.557 60.578 211.176 60.578 209.48C60.578 208.381 60.7327 207.4 61.042 206.536C61.362 205.672 61.8473 204.989 62.498 204.488C63.1593 203.976 63.986 203.72 64.978 203.72C66.4393 203.72 67.5327 204.259 68.258 205.336C68.994 206.403 69.362 207.784 69.362 209.48C69.362 211.176 68.9993 212.557 68.274 213.624C67.5487 214.691 66.45 215.224 64.978 215.224ZM64.978 213.736C65.906 213.736 66.5673 213.347 66.962 212.568C67.3567 211.779 67.554 210.749 67.554 209.48C67.554 208.211 67.3513 207.181 66.946 206.392C66.5513 205.603 65.8953 205.208 64.978 205.208C64.05 205.208 63.3833 205.603 62.978 206.392C62.5833 207.171 62.386 208.2 62.386 209.48C62.386 210.749 62.5833 211.779 62.978 212.568C63.3833 213.347 64.05 213.736 64.978 213.736ZM75.4542 215.224C73.9822 215.224 72.8782 214.691 72.1422 213.624C71.4169 212.557 71.0542 211.176 71.0542 209.48C71.0542 208.381 71.2089 207.4 71.5182 206.536C71.8382 205.672 72.3236 204.989 72.9742 204.488C73.6356 203.976 74.4622 203.72 75.4542 203.72C76.9156 203.72 78.0089 204.259 78.7342 205.336C79.4702 206.403 79.8382 207.784 79.8382 209.48C79.8382 211.176 79.4756 212.557 78.7502 213.624C78.0249 214.691 76.9262 215.224 75.4542 215.224ZM75.4542 213.736C76.3822 213.736 77.0436 213.347 77.4382 212.568C77.8329 211.779 78.0302 210.749 78.0302 209.48C78.0302 208.211 77.8276 207.181 77.4222 206.392C77.0276 205.603 76.3716 205.208 75.4542 205.208C74.5262 205.208 73.8596 205.603 73.4542 206.392C73.0596 207.171 72.8622 208.2 72.8622 209.48C72.8622 210.749 73.0596 211.779 73.4542 212.568C73.8596 213.347 74.5262 213.736 75.4542 213.736Z" fill="#A180FF"/>
<path d="M49.12 288.104C49.12 288.979 48.8 289.709 48.16 290.296C47.52 290.872 46.6027 291.181 45.408 291.224V292.616H44.448V291.192C43.2853 291.075 42.336 290.685 41.6 290.024C40.864 289.363 40.4693 288.472 40.416 287.352H42.048C42.112 288.056 42.3413 288.616 42.736 289.032C43.1413 289.437 43.712 289.688 44.448 289.784V285.96L44.4 285.944C43.3333 285.656 42.4747 285.288 41.824 284.84C41.184 284.392 40.864 283.741 40.864 282.888C40.864 281.981 41.184 281.256 41.824 280.712C42.4747 280.157 43.3493 279.859 44.448 279.816V278.68H45.408V279.864C46.4 279.992 47.2 280.36 47.808 280.968C48.4267 281.565 48.768 282.371 48.832 283.384H47.2C47.0613 282.2 46.464 281.501 45.408 281.288V284.696C46.2827 284.952 46.9707 285.197 47.472 285.432C47.9733 285.667 48.3733 285.997 48.672 286.424C48.9707 286.84 49.12 287.4 49.12 288.104ZM42.512 282.728C42.512 283.165 42.6667 283.501 42.976 283.736C43.296 283.971 43.7867 284.195 44.448 284.408V281.224C43.8507 281.256 43.376 281.405 43.024 281.672C42.6827 281.928 42.512 282.28 42.512 282.728ZM45.408 289.832C46.784 289.757 47.472 289.197 47.472 288.152C47.472 287.651 47.312 287.267 46.992 287C46.672 286.723 46.144 286.467 45.408 286.232V289.832ZM54.8086 291.224C53.55 291.224 52.526 290.936 51.7366 290.36C50.958 289.784 50.5686 288.957 50.5686 287.88C50.5686 287.187 50.7553 286.627 51.1286 286.2C51.5126 285.763 52.014 285.405 52.6326 285.128V285.096C51.6193 284.563 51.1126 283.773 51.1126 282.728C51.1126 281.8 51.454 281.069 52.1366 280.536C52.8193 279.992 53.71 279.72 54.8086 279.72C55.9073 279.72 56.798 279.987 57.4806 280.52C58.174 281.053 58.5206 281.789 58.5206 282.728C58.5206 283.763 58.014 284.552 57.0006 285.096V285.128C57.6193 285.405 58.1153 285.763 58.4886 286.2C58.8726 286.627 59.0646 287.187 59.0646 287.88C59.0646 288.957 58.67 289.784 57.8806 290.36C57.0913 290.936 56.0673 291.224 54.8086 291.224ZM54.8086 284.44C55.4486 284.44 55.9393 284.307 56.2806 284.04C56.622 283.763 56.7926 283.347 56.7926 282.792C56.7926 282.248 56.6166 281.837 56.2646 281.56C55.9233 281.272 55.438 281.128 54.8086 281.128C54.1793 281.128 53.694 281.272 53.3526 281.56C53.0113 281.837 52.8406 282.248 52.8406 282.792C52.8406 283.336 53.0113 283.747 53.3526 284.024C53.694 284.301 54.1793 284.44 54.8086 284.44ZM54.8086 289.784C55.5766 289.784 56.174 289.608 56.6006 289.256C57.038 288.904 57.2566 288.413 57.2566 287.784C57.2566 287.165 57.038 286.685 56.6006 286.344C56.174 285.992 55.5766 285.816 54.8086 285.816C54.0406 285.816 53.438 285.992 53.0006 286.344C52.574 286.685 52.3606 287.165 52.3606 287.784C52.3606 288.413 52.574 288.904 53.0006 289.256C53.438 289.608 54.0406 289.784 54.8086 289.784ZM65.0874 291.224C63.6154 291.224 62.5114 290.691 61.7754 289.624C61.05 288.557 60.6874 287.176 60.6874 285.48C60.6874 284.381 60.842 283.4 61.1514 282.536C61.4714 281.672 61.9567 280.989 62.6074 280.488C63.2687 279.976 64.0954 279.72 65.0874 279.72C66.5487 279.72 67.642 280.259 68.3674 281.336C69.1034 282.403 69.4714 283.784 69.4714 285.48C69.4714 287.176 69.1087 288.557 68.3834 289.624C67.658 290.691 66.5594 291.224 65.0874 291.224ZM65.0874 289.736C66.0154 289.736 66.6767 289.347 67.0714 288.568C67.466 287.779 67.6634 286.749 67.6634 285.48C67.6634 284.211 67.4607 283.181 67.0554 282.392C66.6607 281.603 66.0047 281.208 65.0874 281.208C64.1594 281.208 63.4927 281.603 63.0874 282.392C62.6927 283.171 62.4954 284.2 62.4954 285.48C62.4954 286.749 62.6927 287.779 63.0874 288.568C63.4927 289.347 64.1594 289.736 65.0874 289.736ZM75.5636 291.224C74.0916 291.224 72.9876 290.691 72.2516 289.624C71.5263 288.557 71.1636 287.176 71.1636 285.48C71.1636 284.381 71.3183 283.4 71.6276 282.536C71.9476 281.672 72.433 280.989 73.0836 280.488C73.745 279.976 74.5716 279.72 75.5636 279.72C77.025 279.72 78.1183 280.259 78.8436 281.336C79.5796 282.403 79.9476 283.784 79.9476 285.48C79.9476 287.176 79.585 288.557 78.8596 289.624C78.1343 290.691 77.0356 291.224 75.5636 291.224ZM75.5636 289.736C76.4916 289.736 77.153 289.347 77.5476 288.568C77.9423 287.779 78.1396 286.749 78.1396 285.48C78.1396 284.211 77.937 283.181 77.5316 282.392C77.137 281.603 76.481 281.208 75.5636 281.208C74.6356 281.208 73.969 281.603 73.5636 282.392C73.169 283.171 72.9716 284.2 72.9716 285.48C72.9716 286.749 73.169 287.779 73.5636 288.568C73.969 289.347 74.6356 289.736 75.5636 289.736Z" fill="#A180FF"/>
<line x1="40" y1="117" x2="575" y2="117" stroke="#C9E68C" stroke-width="2"/>
<path d="M330.8 100.76C330.8 102.947 330 104.773 328.4 106.24C326.8 107.68 324.507 108.453 321.52 108.56V112.04H319.12V108.48C316.213 108.187 313.84 107.213 312 105.56C310.16 103.907 309.173 101.68 309.04 98.88H313.12C313.28 100.64 313.853 102.04 314.84 103.08C315.853 104.093 317.28 104.72 319.12 104.96V95.4L319 95.36C316.333 94.64 314.187 93.72 312.56 92.6C310.96 91.48 310.16 89.8533 310.16 87.72C310.16 85.4533 310.96 83.64 312.56 82.28C314.187 80.8933 316.373 80.1467 319.12 80.04V77.2H321.52V80.16C324 80.48 326 81.4 327.52 82.92C329.067 84.4133 329.92 86.4267 330.08 88.96H326C325.653 86 324.16 84.2533 321.52 83.72V92.24C323.707 92.88 325.427 93.4933 326.68 94.08C327.933 94.6667 328.933 95.4933 329.68 96.56C330.427 97.6 330.8 99 330.8 100.76ZM314.28 87.32C314.28 88.4133 314.667 89.2533 315.44 89.84C316.24 90.4267 317.467 90.9867 319.12 91.52V83.56C317.627 83.64 316.44 84.0133 315.56 84.68C314.707 85.32 314.28 86.2 314.28 87.32ZM321.52 105.08C324.96 104.893 326.68 103.493 326.68 100.88C326.68 99.6267 326.28 98.6667 325.48 98C324.68 97.3067 323.36 96.6667 321.52 96.08V105.08ZM338.822 87.48C338.262 87.9867 337.502 88.3333 336.542 88.52C335.608 88.7067 334.435 88.8 333.022 88.8V85.28C334.622 85.2533 335.888 85.0667 336.822 84.72C337.755 84.3467 338.435 83.8133 338.862 83.12C339.288 82.4267 339.568 81.5067 339.702 80.36H343.142V108H338.822V87.48ZM359.254 108.56C355.574 108.56 352.814 107.227 350.974 104.56C349.161 101.893 348.254 98.44 348.254 94.2C348.254 91.4533 348.641 89 349.414 86.84C350.214 84.68 351.428 82.9733 353.054 81.72C354.708 80.44 356.774 79.8 359.254 79.8C362.908 79.8 365.641 81.1467 367.454 83.84C369.294 86.5067 370.214 89.96 370.214 94.2C370.214 98.44 369.308 101.893 367.494 104.56C365.681 107.227 362.934 108.56 359.254 108.56ZM359.254 104.84C361.574 104.84 363.228 103.867 364.214 101.92C365.201 99.9467 365.694 97.3733 365.694 94.2C365.694 91.0267 365.188 88.4533 364.174 86.48C363.188 84.5067 361.548 83.52 359.254 83.52C356.934 83.52 355.268 84.5067 354.254 86.48C353.268 88.4267 352.774 91 352.774 94.2C352.774 97.3733 353.268 99.9467 354.254 101.92C355.268 103.867 356.934 104.84 359.254 104.84ZM385.045 108.56C381.365 108.56 378.605 107.227 376.765 104.56C374.952 101.893 374.045 98.44 374.045 94.2C374.045 91.4533 374.432 89 375.205 86.84C376.005 84.68 377.218 82.9733 378.845 81.72C380.498 80.44 382.565 79.8 385.045 79.8C388.698 79.8 391.432 81.1467 393.245 83.84C395.085 86.5067 396.005 89.96 396.005 94.2C396.005 98.44 395.098 101.893 393.285 104.56C391.472 107.227 388.725 108.56 385.045 108.56ZM385.045 104.84C387.365 104.84 389.018 103.867 390.005 101.92C390.992 99.9467 391.485 97.3733 391.485 94.2C391.485 91.0267 390.978 88.4533 389.965 86.48C388.978 84.5067 387.338 83.52 385.045 83.52C382.725 83.52 381.058 84.5067 380.045 86.48C379.058 88.4267 378.565 91 378.565 94.2C378.565 97.3733 379.058 99.9467 380.045 101.92C381.058 103.867 382.725 104.84 385.045 104.84ZM410.836 108.56C407.156 108.56 404.396 107.227 402.556 104.56C400.742 101.893 399.836 98.44 399.836 94.2C399.836 91.4533 400.222 89 400.996 86.84C401.796 84.68 403.009 82.9733 404.636 81.72C406.289 80.44 408.356 79.8 410.836 79.8C414.489 79.8 417.222 81.1467 419.036 83.84C420.876 86.5067 421.796 89.96 421.796 94.2C421.796 98.44 420.889 101.893 419.076 104.56C417.262 107.227 414.516 108.56 410.836 108.56ZM410.836 104.84C413.156 104.84 414.809 103.867 415.796 101.92C416.782 99.9467 417.276 97.3733 417.276 94.2C417.276 91.0267 416.769 88.4533 415.756 86.48C414.769 84.5067 413.129 83.52 410.836 83.52C408.516 83.52 406.849 84.5067 405.836 86.48C404.849 88.4267 404.356 91 404.356 94.2C404.356 97.3733 404.849 99.9467 405.836 101.92C406.849 103.867 408.516 104.84 410.836 104.84ZM445.666 104.4H441.946V96.8H434.586V93.08H441.946V85.48H445.666V93.08H453.026V96.8H445.666V104.4ZM477.762 108H473.322V96.56L463.082 79.4H467.842L475.522 93.08H475.602L483.282 79.4H488.002L477.762 96.56V108ZM495.91 108H491.51V79.4H495.91V108ZM522.628 108H501.988V79.4H522.228V83.2H506.388V91.32H520.268V95.12H506.388V104.2H522.628V108ZM546.034 108H527.154V79.4H531.554V104.2H546.034V108ZM549.859 108V79.4H560.739C564.739 79.4 567.859 80.6533 570.099 83.16C572.339 85.64 573.459 89.16 573.459 93.72C573.459 98.28 572.352 101.8 570.139 104.28C567.925 106.76 564.819 108 560.819 108H549.859ZM560.539 104.2C566.112 104.2 568.899 100.707 568.899 93.72C568.899 86.7067 566.112 83.2 560.539 83.2H554.259V104.2H560.539Z" fill="#A180FF"/>
<path d="M312.8 230H308.16L318.8 201.4H323.56L334.28 230H329.48L327.12 223.12H315.16L312.8 230ZM321.12 205.48L316.48 219.4H325.88L321.2 205.48H321.12ZM344.538 230.56C341.552 230.56 339.245 229.88 337.618 228.52C336.018 227.16 335.192 225.387 335.138 223.2H339.098C339.178 224.48 339.645 225.507 340.498 226.28C341.378 227.027 342.712 227.4 344.498 227.4C346.072 227.4 347.192 227.12 347.858 226.56C348.525 225.973 348.858 225.253 348.858 224.4C348.858 223.6 348.618 222.987 348.138 222.56C347.658 222.133 347.138 221.853 346.578 221.72C346.045 221.56 345.018 221.32 343.498 221C341.925 220.627 340.618 220.24 339.578 219.84C338.538 219.44 337.658 218.84 336.938 218.04C336.218 217.24 335.858 216.187 335.858 214.88C335.858 213.093 336.538 211.667 337.898 210.6C339.285 209.533 341.192 209 343.618 209C346.285 209 348.338 209.613 349.778 210.84C351.218 212.067 352.018 213.627 352.178 215.52H348.218C348.032 214.533 347.605 213.733 346.938 213.12C346.298 212.48 345.218 212.16 343.698 212.16C342.418 212.16 341.472 212.387 340.858 212.84C340.245 213.293 339.938 213.92 339.938 214.72C339.938 215.307 340.112 215.773 340.458 216.12C340.805 216.467 341.245 216.733 341.778 216.92C342.312 217.08 343.098 217.267 344.138 217.48C344.352 217.507 344.672 217.573 345.098 217.68C346.725 218.053 348.072 218.453 349.138 218.88C350.205 219.307 351.098 219.947 351.818 220.8C352.565 221.653 352.938 222.787 352.938 224.2C352.938 226.2 352.205 227.76 350.738 228.88C349.272 230 347.205 230.56 344.538 230.56ZM364.47 230.56C361.483 230.56 359.176 229.88 357.55 228.52C355.95 227.16 355.123 225.387 355.07 223.2H359.03C359.11 224.48 359.576 225.507 360.43 226.28C361.31 227.027 362.643 227.4 364.43 227.4C366.003 227.4 367.123 227.12 367.79 226.56C368.456 225.973 368.79 225.253 368.79 224.4C368.79 223.6 368.55 222.987 368.07 222.56C367.59 222.133 367.07 221.853 366.51 221.72C365.976 221.56 364.95 221.32 363.43 221C361.856 220.627 360.55 220.24 359.51 219.84C358.47 219.44 357.59 218.84 356.87 218.04C356.15 217.24 355.79 216.187 355.79 214.88C355.79 213.093 356.47 211.667 357.83 210.6C359.216 209.533 361.123 209 363.55 209C366.216 209 368.27 209.613 369.71 210.84C371.15 212.067 371.95 213.627 372.11 215.52H368.15C367.963 214.533 367.536 213.733 366.87 213.12C366.23 212.48 365.15 212.16 363.63 212.16C362.35 212.16 361.403 212.387 360.79 212.84C360.176 213.293 359.87 213.92 359.87 214.72C359.87 215.307 360.043 215.773 360.39 216.12C360.736 216.467 361.176 216.733 361.71 216.92C362.243 217.08 363.03 217.267 364.07 217.48C364.283 217.507 364.603 217.573 365.03 217.68C366.656 218.053 368.003 218.453 369.07 218.88C370.136 219.307 371.03 219.947 371.75 220.8C372.496 221.653 372.87 222.787 372.87 224.2C372.87 226.2 372.136 227.76 370.67 228.88C369.203 230 367.136 230.56 364.47 230.56ZM395.081 219.36C395.081 220.133 395.068 220.627 395.041 220.84H379.361C379.414 222.68 379.961 224.24 381.001 225.52C382.068 226.773 383.561 227.4 385.481 227.4C387.081 227.4 388.308 227.013 389.161 226.24C390.041 225.467 390.601 224.627 390.841 223.72H394.841C394.254 225.8 393.174 227.467 391.601 228.72C390.028 229.973 387.961 230.6 385.401 230.6C383.294 230.6 381.481 230.133 379.961 229.2C378.441 228.267 377.281 226.987 376.481 225.36C375.708 223.733 375.321 221.867 375.321 219.76C375.321 217.627 375.721 215.747 376.521 214.12C377.348 212.493 378.521 211.227 380.041 210.32C381.561 209.413 383.348 208.96 385.401 208.96C388.468 208.96 390.841 209.893 392.521 211.76C394.228 213.627 395.081 216.16 395.081 219.36ZM391.001 217.76C391.001 216.133 390.468 214.8 389.401 213.76C388.361 212.693 386.988 212.16 385.281 212.16C383.628 212.16 382.254 212.68 381.161 213.72C380.068 214.733 379.468 216.08 379.361 217.76H391.001ZM406 227C406.506 227 407.066 226.947 407.68 226.84V230C406.88 230.16 406.053 230.24 405.2 230.24C403.386 230.24 402.026 229.8 401.12 228.92C400.24 228.04 399.8 226.48 399.8 224.24V212.84H396.84V209.6H399.8V203.04H403.72V209.6H407.64V212.84H403.72V224.36C403.72 225.4 403.88 226.107 404.2 226.48C404.546 226.827 405.146 227 406 227ZM430.861 226.4H427.141V218.8H419.781V215.08H427.141V207.48H430.861V215.08H438.221V218.8H430.861V226.4ZM462.957 230H458.517V218.56L448.277 201.4H453.037L460.717 215.08H460.797L468.477 201.4H473.197L462.957 218.56V230ZM481.106 230H476.706V201.4H481.106V230ZM507.824 230H487.184V201.4H507.424V205.2H491.584V213.32H505.464V217.12H491.584V226.2H507.824V230ZM531.229 230H512.349V201.4H516.749V226.2H531.229V230ZM535.054 230V201.4H545.934C549.934 201.4 553.054 202.653 555.294 205.16C557.534 207.64 558.654 211.16 558.654 215.72C558.654 220.28 557.547 223.8 555.334 226.28C553.121 228.76 550.014 230 546.014 230H535.054ZM545.734 226.2C551.307 226.2 554.094 222.707 554.094 215.72C554.094 208.707 551.307 205.2 545.734 205.2H539.454V226.2H545.734Z" fill="#A180FF"/>
<defs>
<filter id="filter0_f_906_23661" x="-267" y="-412" width="1072.52" height="1360.42" filterUnits="userSpaceOnUse" color-interpolation-filters="sRGB">
<feFlood flood-opacity="0" result="BackgroundImageFix"/>
<feBlend mode="normal" in="SourceGraphic" in2="BackgroundImageFix" result="shape"/>
<feGaussianBlur stdDeviation="125" result="effect1_foregroundBlur_906_23661"/>
</filter>
</defs>
</svg>
